<svg width="15" height="16" viewBox="0 0 15 16" fill="none" xmlns="http://www.w3.org/2000/svg">
<g clip-path="url(#clip0_24_387)">
<path d="M14.3618 12C14.4733 11.8067 14.5426 11.589 14.5426 11.3935V4.60645C14.5426 4.41093 14.4734 4.19325 14.3618 4L7.43359 7.99998L14.3618 12Z" fill="#3B9086"/>
<path d="M8.04924 15.8533L13.927 12.4598C14.0963 12.3621 14.2502 12.1933 14.3618 12L7.43359 8L0.505432 12C0.616993 12.1933 0.770929 12.3621 0.940199 12.4598L6.81794 15.8533C7.15653 16.0488 7.71066 16.0488 8.04924 15.8533Z" fill="#3B9086"/>
<path d="M14.3618 3.99998C14.2502 3.80669 14.0962 3.63788 13.927 3.54012L8.04922 0.146642C7.71064 -0.0488805 7.1565 -0.0488805 6.81792 0.146642L0.940177 3.54012C0.601544 3.73559 0.324524 4.21548 0.324524 4.60648V11.3935C0.324524 11.589 0.393802 11.8067 0.50541 12L7.43357 8L14.3618 3.99998Z" fill="#3B9086"/>
<path d="M7.43358 12.7393C4.82028 12.7393 2.69421 10.6133 2.69421 7.99998C2.69421 5.38669 4.82028 3.26062 7.43358 3.26062C9.11986 3.26062 10.6925 4.16807 11.5378 5.62882L9.48674 6.8157C9.06369 6.08454 8.27691 5.6303 7.43358 5.6303C6.12691 5.6303 5.0639 6.69331 5.0639 7.99998C5.0639 9.30661 6.12691 10.3697 7.43358 10.3697C8.277 10.3697 9.06378 9.91543 9.48688 9.18413L11.538 10.371C10.6927 11.8319 9.11996 12.7393 7.43358 12.7393Z" fill="white"/>
<path d="M12.1729 7.73666H11.6463V7.21008H11.1198V7.73666H10.5931V8.26324H11.1198V8.78987H11.6463V8.26324H12.1729V7.73666Z" fill="white"/>
<path d="M14.1477 7.73666H13.621V7.21008H13.0945V7.73666H12.5679V8.26324H13.0945V8.78987H13.621V8.26324H14.1477V7.73666Z" fill="white"/>
</g>
<defs>
<clipPath id="clip0_24_387">
<rect width="14.2181" height="16" fill="white" transform="translate(0.324524)"/>
</clipPath>
</defs>
</svg>
