<svg width="12" height="16" viewBox="0 0 12 16" fill="none" xmlns="http://www.w3.org/2000/svg">
<g clip-path="url(#clip0_23_345)">
<path d="M8.67811 9.77812C8.98436 9.56875 9.40936 9.3875 9.40936 9.3875C9.40936 9.3875 8.19998 9.60625 6.99686 9.70625C5.52498 9.82813 3.94373 9.85312 3.14998 9.74687C1.27186 9.49687 4.18123 8.80625 4.18123 8.80625C4.18123 8.80625 3.05311 8.73125 1.66248 9.4C0.0218571 10.1937 5.72498 10.5562 8.67811 9.77812ZM6.00936 8.775C5.41561 7.44062 3.41248 6.26875 6.00936 4.21875C9.24998 1.6625 7.58748 0 7.58748 0C8.25936 2.64062 5.22498 3.44063 4.12811 5.08125C3.38123 6.20313 4.49373 7.40625 6.00936 8.775ZM9.59061 3.26875C9.59373 3.26875 4.11561 4.6375 6.73123 7.65C7.50311 8.5375 6.52811 9.3375 6.52811 9.3375C6.52811 9.3375 8.48748 8.325 7.58748 7.05937C6.74686 5.87812 6.10311 5.29062 9.59061 3.26875ZM9.39998 11.7219C9.3829 11.7516 9.36188 11.779 9.33748 11.8031C13.3469 10.75 11.8719 8.0875 9.95623 8.7625C9.85274 8.80047 9.76333 8.86916 9.69998 8.95938C9.81185 8.9189 9.92681 8.88754 10.0437 8.86563C11.0125 8.6625 12.4031 10.1625 9.39998 11.7219ZM10.875 13.6687C10.875 13.6687 11.3281 14.0406 10.3781 14.3313C8.56873 14.8781 2.85311 15.0437 1.26561 14.3531C0.693732 14.1062 1.76561 13.7594 2.10311 13.6875C2.45311 13.6125 2.65623 13.625 2.65623 13.625C2.02186 13.1781 -1.44689 14.5031 0.893732 14.8813C7.27498 15.9188 12.5312 14.4156 10.875 13.6687ZM3.88748 12.375C1.42811 13.0625 5.38436 14.4813 8.51561 13.1406C8.21022 13.022 7.91542 12.8777 7.63436 12.7094C6.23748 12.975 5.59061 12.9938 4.32186 12.85C3.27498 12.7313 3.88748 12.375 3.88748 12.375ZM9.50623 15.4125C7.04686 15.875 4.01248 15.8219 2.21561 15.525C2.21561 15.5219 2.58436 15.8281 4.47811 15.95C7.35936 16.1344 11.7844 15.8469 11.8875 14.4844C11.8875 14.4844 11.6875 15 9.50623 15.4125ZM8.14373 11.0312C6.29373 11.3875 5.22186 11.3781 3.86873 11.2375C2.82186 11.1281 3.50623 10.6219 3.50623 10.6219C0.793732 11.5219 5.01248 12.5406 8.80311 11.4312C8.55813 11.3447 8.33365 11.2085 8.14373 11.0312Z" fill="#3B9086"/>
</g>
<defs>
<clipPath id="clip0_23_345">
<rect width="12" height="16" fill="white"/>
</clipPath>
</defs>
</svg>
