<svg width="15" height="16" viewBox="0 0 15 16" fill="none" xmlns="http://www.w3.org/2000/svg">
<g clip-path="url(#clip0_27_553)">
<path d="M7.54258 15.875C7.3332 15.875 7.1207 15.8188 6.93633 15.7125L5.0082 14.5719C4.7207 14.4094 4.86133 14.3531 4.95508 14.3219C5.33945 14.1875 5.41758 14.1594 5.82695 13.925C5.8707 13.9 5.92695 13.9094 5.9707 13.9375L7.45195 14.8156C7.50508 14.8469 7.58008 14.8469 7.63008 14.8156L13.402 11.4844C13.4551 11.4531 13.4895 11.3906 13.4895 11.3281V4.66565C13.4895 4.60002 13.4551 4.54065 13.3988 4.50627L7.63008 1.17815C7.57695 1.1469 7.50508 1.1469 7.45195 1.17815L1.68633 4.5094C1.63008 4.54065 1.5957 4.60315 1.5957 4.66877V11.3281C1.5957 11.3906 1.63008 11.4531 1.68633 11.4813L3.26758 12.3938C4.12695 12.8219 4.65195 12.3188 4.65195 11.8094V5.2344C4.65195 5.14065 4.72695 5.06877 4.8207 5.06877H5.55195C5.64258 5.06877 5.7207 5.14065 5.7207 5.2344V11.8125C5.7207 12.9563 5.0957 13.6125 4.01133 13.6125C3.67695 13.6125 3.41445 13.6125 2.6832 13.25L1.1707 12.3781C0.795703 12.1625 0.564453 11.7594 0.564453 11.325V4.66565C0.564453 4.2344 0.795703 3.82815 1.1707 3.61252L6.93633 0.281274C7.30195 0.0750244 7.78633 0.0750244 8.14883 0.281274L13.9207 3.61565C14.2957 3.83127 14.527 4.2344 14.527 4.66877V11.3281C14.527 11.7594 14.2957 12.1625 13.9207 12.3813L8.14883 15.7125C7.96445 15.8188 7.75508 15.875 7.54258 15.875ZM12.202 9.3094C12.202 8.06252 11.3582 7.73127 9.58633 7.4969C7.79258 7.2594 7.61133 7.13752 7.61133 6.71877C7.61133 6.3719 7.76445 5.9094 9.09258 5.9094C10.277 5.9094 10.7145 6.16565 10.8957 6.96565C10.9113 7.04065 10.9801 7.0969 11.0582 7.0969H11.8082C11.8551 7.0969 11.8988 7.07815 11.9301 7.04377C11.9613 7.0094 11.977 6.96252 11.9738 6.91565C11.8582 5.53752 10.9426 4.8969 9.09258 4.8969C7.4457 4.8969 6.46445 5.59065 6.46445 6.75627C6.46445 8.01877 7.44258 8.36877 9.0207 8.52502C10.9113 8.7094 11.0582 8.98752 11.0582 9.3594C11.0582 10.0031 10.5395 10.2781 9.32383 10.2781C7.7957 10.2781 7.46133 9.89377 7.34883 9.1344C7.33633 9.05315 7.26758 8.99377 7.1832 8.99377H6.43633C6.34258 8.99377 6.2707 9.06877 6.2707 9.1594C6.2707 10.1313 6.79883 11.2906 9.32695 11.2906C11.152 11.2875 12.202 10.5656 12.202 9.3094Z" fill="#3B9086"/>
</g>
<defs>
<clipPath id="clip0_27_553">
<rect width="14" height="16" fill="white" transform="translate(0.542603)"/>
</clipPath>
</defs>
</svg>
