<svg width="21" height="16" viewBox="0 0 21 16" fill="none" xmlns="http://www.w3.org/2000/svg">
<g clip-path="url(#clip0_25_400)">
<path d="M10.5426 3.2656C15.8989 3.2656 20.0176 5.52185 20.0176 7.99998C20.0176 10.4781 15.8957 12.7344 10.5426 12.7344C5.18635 12.7344 1.0676 10.4781 1.0676 7.99998C1.0676 5.52185 5.18948 3.2656 10.5426 3.2656ZM10.5426 2.7406C5.02073 2.7406 0.542603 5.09373 0.542603 7.99998C0.542603 10.9062 5.02073 13.2593 10.5426 13.2593C16.0645 13.2593 20.5426 10.9062 20.5426 7.99998C20.5426 5.09373 16.0645 2.7406 10.5426 2.7406ZM7.36135 7.5781C7.11448 8.84373 6.2426 8.71248 5.17073 8.71248L5.59885 6.50623C6.78635 6.50623 7.5926 6.3781 7.36135 7.5781ZM3.58635 10.9468H4.73323L5.0051 9.54685C6.28948 9.54685 7.08635 9.6406 7.82385 8.94998C8.63948 8.19998 8.85198 6.8656 8.27073 6.19685C7.9676 5.84685 7.4801 5.67498 6.8176 5.67498H4.60823L3.58635 10.9468ZM9.38948 4.27185H10.5301L10.2582 5.67185C11.2426 5.67185 12.1551 5.59998 12.5957 6.00623C13.0582 6.43123 12.8364 6.97498 12.3364 9.5406H11.1801C11.6614 7.05935 11.752 6.8531 11.577 6.6656C11.4082 6.48435 11.0239 6.52185 10.0957 6.52185L9.50823 9.5406H8.3676L9.38948 4.27185ZM16.3239 7.5781C16.0739 8.86248 15.177 8.71248 14.1332 8.71248L14.5614 6.50623C15.7551 6.50623 16.5551 6.3781 16.3239 7.5781ZM12.5489 10.9468H13.6989L13.9707 9.54685C15.3207 9.54685 16.0676 9.62498 16.7895 8.94998C17.6051 8.19998 17.8176 6.8656 17.2364 6.19685C16.9332 5.84685 16.4457 5.67498 15.7832 5.67498H13.5739L12.5489 10.9468Z" fill="#85BDA6"/>
</g>
<defs>
<clipPath id="clip0_25_400">
<rect width="20" height="16" fill="white" transform="translate(0.542603)"/>
</clipPath>
</defs>
</svg>
