<svg width="15" height="16" viewBox="0 0 15 16" fill="none" xmlns="http://www.w3.org/2000/svg">
<g clip-path="url(#clip0_25_405)">
<path d="M14.2864 6.26567C14.0458 5.30004 13.5895 4.57192 12.6176 4.57192H11.3645V6.05317C11.3645 7.20317 10.3895 8.17192 9.277 8.17192H5.9395C5.027 8.17192 4.27075 8.95316 4.27075 9.86879V13.05C4.27075 13.9563 5.05825 14.4875 5.9395 14.7469C6.99575 15.0563 8.01138 15.1125 9.277 14.7469C10.1176 14.5032 10.9458 14.0125 10.9458 13.05V11.7782H7.61138V11.3532H12.6176C13.5895 11.3532 13.9489 10.675 14.2864 9.65942C14.6364 8.61254 14.6208 7.60629 14.2864 6.26567ZM9.48638 12.625C9.83325 12.625 10.1145 12.9094 10.1145 13.2594C10.1145 13.6125 9.83325 13.8969 9.48638 13.8969C9.14263 13.8969 8.85825 13.6094 8.85825 13.2594C8.86138 12.9063 9.14263 12.625 9.48638 12.625ZM5.78638 7.75317H9.12388C10.052 7.75317 10.7926 6.98754 10.7926 6.05629V2.87192C10.7926 1.96567 10.0301 1.28754 9.12388 1.13442C8.00513 0.95004 6.7895 0.959415 5.78638 1.13754C4.37388 1.38754 4.11763 1.90942 4.11763 2.87504V4.14692H7.45825V4.57192H2.8645C1.89263 4.57192 1.04263 5.15629 0.777001 6.26567C0.470751 7.53754 0.458251 8.33129 0.777001 9.65942C1.0145 10.6469 1.58013 11.3532 2.552 11.3532H3.69888V9.82817C3.69888 8.72504 4.652 7.75317 5.78638 7.75317ZM5.577 3.29692C5.23013 3.29692 4.94888 3.01254 4.94888 2.66254C4.952 2.30942 5.23013 2.02504 5.577 2.02504C5.92075 2.02504 6.20513 2.31254 6.20513 2.66254C6.20513 3.01254 5.92388 3.29692 5.577 3.29692Z" fill="#3B9086"/>
</g>
<defs>
<clipPath id="clip0_25_405">
<rect width="14" height="16" fill="white" transform="translate(0.542603)"/>
</clipPath>
</defs>
</svg>
