<svg width="17" height="16" viewBox="0 0 17 16" fill="none" xmlns="http://www.w3.org/2000/svg">
<g clip-path="url(#clip0_25_458)">
<path d="M8.47178 0.043457L8.89878 0.845457C8.99478 0.993457 9.09878 1.12446 9.22128 1.24646C9.57878 1.60396 9.91828 1.97846 10.2233 2.37946C10.9468 3.32946 11.4348 4.38446 11.7833 5.52546C11.9923 6.22246 12.1058 6.93746 12.1143 7.66046C12.1493 9.82196 11.4083 11.678 9.91428 13.2205C9.67028 13.4645 9.40928 13.6905 9.12928 13.8915C8.98128 13.8915 8.91128 13.778 8.85028 13.6735C8.73678 13.482 8.66728 13.2635 8.63228 13.046C8.57978 12.7845 8.54528 12.523 8.56228 12.253V12.131C8.55028 12.105 8.41978 0.104957 8.47178 0.043457Z" fill="#85BDA6"/>
<path d="M8.47176 0.0169574C8.45426 -0.0180426 8.43676 0.00845736 8.41926 0.0254574C8.42776 0.200457 8.36676 0.356457 8.27126 0.505457C8.16626 0.653457 8.02726 0.766957 7.88776 0.888957C7.11276 1.55996 6.50276 2.37046 6.01426 3.27696C5.36426 4.49696 5.02926 5.80446 4.93426 7.18096C4.89076 7.67746 5.09126 9.42946 5.24776 9.93496C5.67476 11.277 6.44176 12.4015 7.43526 13.3775C7.67926 13.6125 7.94026 13.8305 8.21026 14.04C8.28876 14.04 8.29726 13.97 8.31526 13.918C8.34968 13.8067 8.37591 13.6931 8.39376 13.578L8.56876 12.271L8.47176 0.0169574Z" fill="#C6EBBD"/>
<path d="M8.89877 14.4225C8.91627 14.2225 9.01227 14.0565 9.11677 13.891C9.01177 13.8475 8.93377 13.761 8.87277 13.6645C8.82027 13.5775 8.77677 13.473 8.74277 13.377C8.62077 13.011 8.59477 12.627 8.55977 12.253V12.0265C8.51627 12.0615 8.50727 12.3575 8.50727 12.4015C8.48182 12.7968 8.42937 13.1899 8.35027 13.578C8.32427 13.735 8.30677 13.8915 8.21027 14.031C8.21027 14.0485 8.21027 14.066 8.21877 14.092C8.37577 14.554 8.41877 15.0245 8.44527 15.504V15.679C8.44527 15.888 8.43677 15.844 8.61027 15.914C8.68027 15.94 8.75827 15.949 8.82827 16.001C8.88077 16.001 8.88927 15.9575 8.88927 15.9225L8.86327 15.635V14.833C8.85477 14.693 8.88077 14.554 8.89827 14.423L8.89877 14.4225Z" fill="#85BDA6"/>
</g>
<defs>
<clipPath id="clip0_25_458">
<rect width="16" height="16" fill="white" transform="translate(0.52179)"/>
</clipPath>
</defs>
</svg>
