<svg width="55" height="16" viewBox="0 0 55 16" fill="none" xmlns="http://www.w3.org/2000/svg">
<g clip-path="url(#clip0_25_462)">
<path d="M22.6482 3.45466C21.7995 8.07379 20.6864 11.4268 19.2951 13.5138C18.2127 15.1277 17.0273 15.9347 15.7334 15.9347C15.3897 15.9347 14.9654 15.8307 14.4617 15.6244V14.5114C14.708 14.5475 14.996 14.5667 15.3285 14.5667C15.931 14.5667 16.4165 14.3998 16.7894 14.0672C17.2318 13.661 17.453 13.2046 17.453 12.6996C17.453 12.3546 17.2805 11.645 16.9369 10.5709L14.6551 3.44742H16.7003L18.3421 8.77612C18.7108 9.98516 18.8652 10.8352 18.8026 11.3083C19.7 8.90134 20.333 6.28568 20.6809 3.44742H22.6565M13.613 12.6579H11.5261C11.4528 9.13786 11.2492 5.81264 10.9181 2.71003H10.8997L7.72754 12.6579H6.14145L2.98319 2.71003H2.96455C2.73081 5.68742 2.58333 9.01264 2.52211 12.6579H0.616028C0.738741 8.2196 1.04594 4.0596 1.53707 0.177856H4.1249L7.13012 9.34655H7.14862L10.1678 0.177856H12.6443C13.1855 4.72742 13.5055 8.88742 13.6029 12.6579" fill="#3B9086"/>
<path d="M50.4743 12.665H44.5612V0.185021H46.5508V11.1346H50.4743V12.665ZM35.5873 10.1746C35.0836 9.36067 34.8304 8.0598 34.8304 6.25111C34.8304 3.10676 35.7835 1.53459 37.6826 1.53459C38.6788 1.53459 39.4078 1.91024 39.8809 2.66154C40.3845 3.47546 40.6377 4.77633 40.6377 6.54328C40.6377 9.71546 39.6847 11.3015 37.7856 11.3015C36.7894 11.3015 36.0603 10.9259 35.5873 10.1732M43.0029 12.9697L40.7212 11.8386C40.9243 11.6716 41.1191 11.4908 41.293 11.2807C42.2642 10.1356 42.7539 8.44241 42.7539 6.20241C42.7539 2.07024 41.14 0.0111084 37.8982 0.0111084C36.3122 0.0111084 35.0739 0.534239 34.1974 1.58328C33.2249 2.72972 32.7365 4.42154 32.7365 6.64763C32.7365 8.84589 33.1664 10.4459 34.0276 11.4755C34.8123 12.3993 36.0033 12.8626 37.5894 12.8626C38.1821 12.8626 38.7247 12.7894 39.2172 12.6428L42.1946 14.3819L43.0071 12.9767M31.8767 9.22015C31.8767 10.2789 31.4885 11.1541 30.7149 11.8219C29.9414 12.4995 28.9063 12.8375 27.5984 12.8375C26.381 12.8375 25.2054 12.4466 24.0506 11.6716L24.5849 10.5989C25.5685 11.0915 26.4631 11.3377 27.2562 11.3377C28.0061 11.3377 28.5932 11.1708 29.0231 10.8396C29.4461 10.5071 29.7007 10.0424 29.7007 9.45389C29.7007 8.71233 29.1845 8.07928 28.2398 7.5478C27.3661 7.0678 25.6242 6.05911 25.6242 6.05911C24.6781 5.36763 24.205 4.62607 24.205 3.40172C24.205 2.39024 24.5584 1.57911 25.2652 0.953021C25.9734 0.329717 26.8791 0.0180649 28.0061 0.0180649C29.1622 0.0180649 30.2183 0.326935 31.1643 0.943282L30.6829 2.01459C29.8732 1.67093 29.069 1.49702 28.2899 1.49702C27.6513 1.49702 27.1588 1.65146 26.8151 1.96033C26.4701 2.26641 26.2572 2.66154 26.2572 3.14293C26.2572 3.88172 26.7845 4.52311 27.7598 5.06293C28.6433 5.54433 30.4311 6.56554 30.4311 6.56554C31.4036 7.25563 31.892 7.99859 31.892 9.20902" fill="#3B9086"/>
<path d="M51.5873 12.6651H51.9171V11.3948H52.3484V11.136H51.1379V11.3948H51.5859L51.5873 12.6651ZM54.1056 12.6651H54.4172V11.1346H53.9498L53.5685 12.1767L53.1539 11.1346H52.7032V12.6651H52.9981V11.5006H53.0148L53.4489 12.6651H53.6729L54.107 11.5006V12.6651" fill="#3B9086"/>
</g>
<defs>
<clipPath id="clip0_25_462">
<rect width="54.2897" height="16" fill="white" transform="translate(0.52179)"/>
</clipPath>
</defs>
</svg>
