<svg width="16" height="16" viewBox="0 0 16 16" fill="none" xmlns="http://www.w3.org/2000/svg">
<path d="M14.4557 9.74369C12.6486 10.1164 12.5244 9.50462 12.5244 9.50462C14.4324 6.67351 15.23 3.07984 14.5417 2.20031C12.6639 -0.198888 9.41343 0.935776 9.35918 0.965234L9.34172 0.968359C8.98471 0.894248 8.58516 0.850097 8.13611 0.842768C7.31844 0.829369 6.69821 1.05713 6.22757 1.41403C6.22757 1.41403 0.429016 -0.974742 0.698699 4.41837C0.75607 5.56571 2.34316 13.0997 4.23618 10.8241C4.92808 9.99196 5.5966 9.28839 5.5966 9.28839C5.92864 9.50896 6.32614 9.62148 6.74286 9.58106L6.77523 9.55358C6.76517 9.6569 6.76977 9.75795 6.7882 9.87758C6.30053 10.4224 6.44383 10.5181 5.46896 10.7188C4.48252 10.9221 5.06201 11.284 5.44036 11.3786C5.89904 11.4933 6.9602 11.6558 7.67721 10.6521L7.64862 10.7666C7.8397 10.9196 7.97388 11.7621 7.95139 12.5258C7.9289 13.2895 7.91388 13.8138 8.06444 14.2233C8.215 14.6329 8.36505 15.5543 9.64661 15.2797C10.7175 15.0502 11.2724 14.4555 11.3496 13.4636C11.4044 12.7583 11.5284 12.8626 11.5362 12.2321L11.6356 11.9336C11.7503 10.9776 11.6538 10.6692 12.3136 10.8127L12.4739 10.8267C12.9595 10.8488 13.595 10.7486 13.968 10.5753C14.7712 10.2025 15.2476 9.58017 14.4556 9.74369H14.4557Z" fill="#85BDA6"/>
<path d="M7.7548 10.2917C7.70504 12.0706 7.7673 13.8618 7.94135 14.2971C8.11551 14.7324 8.48823 15.5792 9.76989 15.3046C10.8406 15.075 11.2302 14.6308 11.3993 13.6503C11.5238 12.9288 11.7639 10.9253 11.7946 10.5148" stroke="#C6EBBD" stroke-width="0.3" stroke-linecap="round" stroke-linejoin="round"/>
<path d="M6.21863 1.3744C6.21863 1.3744 0.416126 -0.997173 0.68588 4.39594C0.743251 5.54328 2.33045 13.0775 4.22344 10.8018C4.91519 9.96957 5.54081 9.31686 5.54081 9.31686" stroke="#C6EBBD" stroke-width="0.3" stroke-linecap="round" stroke-linejoin="round"/>
<path d="M9.35281 0.941501C9.15196 1.00448 12.5805 -0.311856 14.529 2.1779C15.2173 3.05747 14.4197 6.65114 12.5118 9.48232" stroke="#C6EBBD" stroke-width="0.3" stroke-linecap="round" stroke-linejoin="round"/>
<path d="M12.5117 9.48229C12.5117 9.48229 12.6361 10.0943 14.4431 9.72129C15.2349 9.55777 14.7584 10.1802 13.9554 10.5531C13.2964 10.859 11.8189 10.9374 11.7947 10.5147C11.7326 9.42424 12.5723 9.75553 12.5117 9.48229ZM12.5117 9.48229C12.4569 9.23621 12.0814 8.99469 11.833 8.39243C11.6161 7.86675 8.85863 3.83548 12.5977 4.4342C12.7347 4.40585 11.6225 0.877634 8.12327 0.820263C4.62479 0.762893 4.73957 5.12261 4.73957 5.12261" stroke="#C6EBBD" stroke-width="0.3" stroke-linecap="round" stroke-linejoin="bevel"/>
<path d="M6.77546 9.85527C6.28772 10.4001 6.43116 10.4958 5.45622 10.6965C4.46978 10.8998 5.04934 11.2617 5.42759 11.3563C5.88627 11.471 6.94743 11.6335 7.66444 10.6295C7.88279 10.3239 7.66315 9.83612 7.36322 9.71179C7.2183 9.65176 7.02452 9.57653 6.77546 9.85527Z" stroke="#C6EBBD" stroke-width="0.3" stroke-linecap="round" stroke-linejoin="round"/>
<path d="M6.74352 9.84577C6.69438 9.52544 6.84878 9.14425 7.01425 8.69829C7.26291 8.02916 7.83666 7.35993 7.37769 5.23739C7.03558 3.65569 4.741 4.90822 4.73956 5.12268C4.73816 5.33708 4.84335 6.20975 4.70123 7.22597C4.51579 8.55204 5.54502 9.67355 6.73019 9.55881" stroke="#C6EBBD" stroke-width="0.3" stroke-linecap="round" stroke-linejoin="round"/>
<path d="M6.19754 5.09052C6.1872 5.16376 6.33165 5.35923 6.52 5.38534C6.70803 5.41157 6.86897 5.25882 6.87917 5.18564C6.88937 5.11239 6.7451 5.03171 6.55668 5.00548C6.36854 4.97922 6.20753 5.01745 6.19758 5.09052H6.19754Z" fill="#C6EBBD" stroke="#C6EBBD" stroke-width="0.3"/>
<path d="M11.9247 4.94121C11.9349 5.01446 11.7907 5.20992 11.6023 5.23604C11.4141 5.26226 11.2532 5.10951 11.2429 5.03634C11.2329 4.96309 11.3772 4.8824 11.5654 4.85618C11.7536 4.82995 11.9145 4.86814 11.9247 4.94124V4.94121Z" fill="#C6EBBD" stroke="#C6EBBD" stroke-width="0.3"/>
<path d="M12.5978 4.4342C12.6288 5.00877 12.474 5.40013 12.4545 6.01178C12.4256 6.90083 12.8784 7.91841 12.1962 8.93726" stroke="#C6EBBD" stroke-width="0.3" stroke-linecap="round" stroke-linejoin="round"/>
</svg>
