<svg width="12" height="16" viewBox="0 0 12 16" fill="none" xmlns="http://www.w3.org/2000/svg">
<g clip-path="url(#clip0_27_548)">
<path d="M0.4375 2.99375C0.4375 1.34063 1.77813 0 3.43125 0H8.56875C10.2219 0 11.5625 1.34063 11.5625 2.99375C11.5625 4.04063 11.025 4.9625 10.2094 5.49687C11.025 6.03125 11.5625 6.95312 11.5625 8C11.5625 9.65313 10.2219 10.9937 8.56875 10.9937H8.50313C7.72813 10.9937 7.02187 10.7 6.49062 10.2156V12.975C6.49062 14.65 5.11563 16 3.44688 16C1.79688 16 0.4375 14.6625 0.4375 13.0063C0.4375 11.9594 0.975 11.0375 1.7875 10.5031C0.975 9.96875 0.4375 9.04688 0.4375 8C0.4375 6.95312 0.975 6.03125 1.7875 5.49687C0.975 4.9625 0.4375 4.04063 0.4375 2.99375ZM5.50938 5.9875H3.43125C2.31875 5.9875 1.41875 6.8875 1.41875 8C1.41875 9.10625 2.3125 10.0062 3.41875 10.0125C3.42188 10.0125 3.42813 10.0125 3.43125 10.0125H5.50938V5.9875ZM6.49062 8C6.49062 9.1125 7.39063 10.0125 8.50313 10.0125H8.56875C9.67813 10.0125 10.5813 9.1125 10.5813 8C10.5813 6.8875 9.67813 5.9875 8.56875 5.9875H8.50313C7.39063 5.9875 6.49062 6.8875 6.49062 8ZM3.43125 10.9937C3.42813 10.9937 3.42188 10.9937 3.41875 10.9937C2.3125 11 1.41875 11.9 1.41875 13.0063C1.41875 14.1156 2.33125 15.0188 3.44688 15.0188C4.58125 15.0188 5.50938 14.1 5.50938 12.975V10.9937H3.43125ZM3.43125 0.98125C2.31875 0.98125 1.41875 1.88125 1.41875 2.99375C1.41875 4.10625 2.31875 5.00625 3.43125 5.00625H5.50938V0.98125H3.43125ZM6.49062 5.00625H8.56875C9.67813 5.00625 10.5813 4.10625 10.5813 2.99375C10.5813 1.88125 9.67813 0.98125 8.56875 0.98125H6.49062V5.00625Z" fill="#85BDA6"/>
</g>
<defs>
<clipPath id="clip0_27_548">
<rect width="12" height="16" fill="white"/>
</clipPath>
</defs>
</svg>
