<svg width="14" height="16" viewBox="0 0 14 16" fill="none" xmlns="http://www.w3.org/2000/svg">
<g clip-path="url(#clip0_26_543)">
<path d="M13.7375 7.37811L7.62499 1.26561C7.45571 1.09692 7.22647 1.0022 6.98749 1.0022C6.74851 1.0022 6.51927 1.09692 6.34999 1.26561L5.07811 2.53436L6.68749 4.14374C7.53436 3.85936 8.33436 4.66874 8.04374 5.50936L9.59686 7.06249C10.6656 6.69374 11.5094 8.03124 10.7062 8.83436C9.87811 9.66249 8.51249 8.74374 8.95624 7.66874L7.50624 6.21874V10.0281C8.29686 10.4187 8.20311 11.3375 7.79061 11.7469C7.69103 11.8468 7.57268 11.9261 7.44237 11.9803C7.31206 12.0344 7.17234 12.0623 7.03124 12.0623C6.89013 12.0623 6.75042 12.0344 6.6201 11.9803C6.48979 11.9261 6.37145 11.8468 6.27186 11.7469C5.72186 11.1969 5.92499 10.2812 6.62499 9.99686V6.15311C5.97499 5.88749 5.85624 5.19374 6.04374 4.74686L4.45624 3.15624L0.265613 7.34686C0.0969192 7.51614 0.00219727 7.74538 0.00219727 7.98436C0.00219727 8.22334 0.0969192 8.45258 0.265613 8.62186L6.37811 14.7344C6.54739 14.9031 6.77663 14.9978 7.01561 14.9978C7.25459 14.9978 7.48383 14.9031 7.65311 14.7344L13.7375 8.64999C13.9062 8.48071 14.0009 8.25147 14.0009 8.01249C14.0009 7.77351 13.9062 7.54427 13.7375 7.37499V7.37811Z" fill="#85BDA6"/>
</g>
<defs>
<clipPath id="clip0_26_543">
<rect width="14" height="16" fill="white"/>
</clipPath>
</defs>
</svg>
