<svg width="16" height="16" viewBox="0 0 16 16" fill="none" xmlns="http://www.w3.org/2000/svg">
<g clip-path="url(#clip0_26_528)">
<mask id="mask0_26_528" style="mask-type:alpha" maskUnits="userSpaceOnUse" x="0" y="0" width="16" height="16">
<path fill-rule="evenodd" clip-rule="evenodd" d="M11.3459 15.8907C11.5979 15.9889 11.8852 15.9826 12.1396 15.8602L15.4337 14.2752C15.7799 14.1086 16 13.7583 16 13.374V2.62613C16 2.24181 15.7799 1.89149 15.4337 1.72493L12.1396 0.139801C11.8058 -0.0208208 11.4151 0.0185215 11.1222 0.231512C11.0803 0.261938 11.0404 0.295909 11.003 0.333346L4.69682 6.08664L1.94995 4.00154C1.69424 3.80744 1.33658 3.82334 1.09909 4.03938L0.218085 4.84078C-0.0724083 5.10502 -0.0727412 5.56203 0.217365 5.82672L2.59954 8.00002L0.217365 10.1733C-0.0727412 10.438 -0.0724083 10.895 0.218085 11.1592L1.09909 11.9607C1.33658 12.1767 1.69424 12.1926 1.94995 11.9985L4.69682 9.91339L11.003 15.6667C11.1028 15.7665 11.2199 15.8417 11.3459 15.8907ZM12.0024 4.36782L7.21746 8.00002L12.0024 11.6322V4.36782Z" fill="white"/>
</mask>
<g mask="url(#mask0_26_528)">
<path d="M15.4338 1.72738L12.1371 0.140077C11.7555 -0.0436534 11.2995 0.033848 11 0.333323L0.207793 10.1733C-0.0824905 10.438 -0.0821567 10.895 0.208513 11.1592L1.09006 11.9606C1.32769 12.1767 1.68557 12.1926 1.94143 11.9985L14.9378 2.13917C15.3738 1.80841 16 2.11938 16 2.66666V2.62839C16 2.24423 15.78 1.89404 15.4338 1.72738Z" fill="#85BDA6"/>
<g filter="url(#filter0_d_26_528)">
<path d="M15.4338 14.2726L12.1371 15.8599C11.7555 16.0437 11.2995 15.9661 11 15.6667L0.207793 5.82669C-0.0824905 5.56202 -0.0821567 5.10499 0.208513 4.84075L1.09006 4.03934C1.32769 3.82331 1.68557 3.80741 1.94143 4.0015L14.9378 13.8608C15.3738 14.1916 16 13.8806 16 13.3333V13.3716C16 13.7557 15.78 14.1059 15.4338 14.2726Z" fill="#85BDA6"/>
</g>
<g filter="url(#filter1_d_26_528)">
<path d="M12.1372 15.8602C11.7555 16.0439 11.2995 15.9662 11 15.6667C11.369 16.0357 12 15.7743 12 15.2525V0.74756C12 0.225682 11.369 -0.0356774 11 0.333346C11.2995 0.0338439 11.7555 -0.043767 12.1372 0.139801L15.4334 1.72493C15.7797 1.89149 16 2.24181 16 2.62613V13.374C16 13.7583 15.7797 14.1086 15.4334 14.2752L12.1372 15.8602Z" fill="#85BDA6"/>
</g>
<g style="mix-blend-mode:overlay" opacity="0.25">
<path fill-rule="evenodd" clip-rule="evenodd" d="M11.3362 15.8909C11.5882 15.989 11.8756 15.9827 12.1299 15.8604L15.424 14.2753C15.7702 14.1087 15.9903 13.7584 15.9903 13.3741V2.62626C15.9903 2.24192 15.7702 1.8916 15.424 1.72504L12.1299 0.139923C11.7961 -0.0206986 11.4054 0.0186437 11.1125 0.231633C11.0706 0.26206 11.0307 0.296031 10.9933 0.333468L4.68711 6.08676L1.94024 4.00167C1.68455 3.80756 1.32688 3.82348 1.08939 4.03949L0.208381 4.8409C-0.0821129 5.10516 -0.0824459 5.56216 0.207661 5.82684L2.58983 8.00013L0.207661 10.1734C-0.0824459 10.4381 -0.0821129 10.8951 0.208381 11.1594L1.08939 11.9608C1.32688 12.1768 1.68455 12.1927 1.94024 11.9986L4.68711 9.91351L10.9933 15.6668C11.0931 15.7666 11.2102 15.8418 11.3362 15.8909ZM11.9927 4.36796L7.20775 8.00013L11.9927 11.6323V4.36796Z" fill="url(#paint0_linear_26_528)"/>
</g>
</g>
</g>
<defs>
<filter id="filter0_d_26_528" x="-8.34304" y="-4.46737" width="32.6764" height="28.7593" filterUnits="userSpaceOnUse" color-interpolation-filters="sRGB">
<feFlood flood-opacity="0" result="BackgroundImageFix"/>
<feColorMatrix in="SourceAlpha" type="matrix" values="0 0 0 0 0 0 0 0 0 0 0 0 0 0 0 0 0 0 127 0" result="hardAlpha"/>
<feOffset/>
<feGaussianBlur stdDeviation="4.16667"/>
<feColorMatrix type="matrix" values="0 0 0 0 0 0 0 0 0 0 0 0 0 0 0 0 0 0 0.25 0"/>
<feBlend mode="overlay" in2="BackgroundImageFix" result="effect1_dropShadow_26_528"/>
<feBlend mode="normal" in="SourceGraphic" in2="effect1_dropShadow_26_528" result="shape"/>
</filter>
<filter id="filter1_d_26_528" x="2.66666" y="-8.29208" width="21.6667" height="32.5842" filterUnits="userSpaceOnUse" color-interpolation-filters="sRGB">
<feFlood flood-opacity="0" result="BackgroundImageFix"/>
<feColorMatrix in="SourceAlpha" type="matrix" values="0 0 0 0 0 0 0 0 0 0 0 0 0 0 0 0 0 0 127 0" result="hardAlpha"/>
<feOffset/>
<feGaussianBlur stdDeviation="4.16667"/>
<feColorMatrix type="matrix" values="0 0 0 0 0 0 0 0 0 0 0 0 0 0 0 0 0 0 0.25 0"/>
<feBlend mode="overlay" in2="BackgroundImageFix" result="effect1_dropShadow_26_528"/>
<feBlend mode="normal" in="SourceGraphic" in2="effect1_dropShadow_26_528" result="shape"/>
</filter>
<linearGradient id="paint0_linear_26_528" x1="7.99029" y1="0.0413817" x2="7.99029" y2="15.9589" gradientUnits="userSpaceOnUse">
<stop stop-color="white"/>
<stop offset="1" stop-color="white" stop-opacity="0"/>
</linearGradient>
<clipPath id="clip0_26_528">
<rect width="16" height="16" fill="white"/>
</clipPath>
</defs>
</svg>
