<svg width="16" height="16" viewBox="0 0 16 16" fill="none" xmlns="http://www.w3.org/2000/svg">
<g clip-path="url(#clip0_23_302)">
<path d="M11.8313 2.46563C11.7438 2.4625 11.6563 2.45937 11.5656 2.45937H3.3125L7.7875 0.209375C8.01875 0.071875 8.375 0 8.7375 0C9.15938 0 9.65625 0.2875 9.89375 0.525L11.8313 2.4625V2.46563ZM3.35313 3.01562H11.5656C12.0656 3.01562 12.3594 3.05938 12.6719 3.30625L16 6.63125V13.1562L13.5219 13.1781L3.35313 3.01562ZM3.01562 11.6562V3.4625L13.1344 13.5813L13.1562 16H6.525L3.45937 12.9312C3.10625 12.5781 3.01562 12.4531 3.01562 11.6562ZM2.45937 3.29063V11.6562C2.45937 11.7594 2.4625 11.8531 2.46563 11.9406L0.528125 10.0031C0.203125 9.66563 0 9.19688 0 8.7375C0 8.525 0.121875 8.19062 0.209375 8L2.45937 3.29063Z" fill="#85BDA6"/>
</g>
<defs>
<clipPath id="clip0_23_302">
<rect width="16" height="16" fill="white"/>
</clipPath>
</defs>
</svg>
