<svg width="16" height="16" viewBox="0 0 16 16" fill="none" xmlns="http://www.w3.org/2000/svg">
<g clip-path="url(#clip0_23_314)">
<path d="M8 16C12.4183 16 16 12.4183 16 8C16 3.58172 12.4183 0 8 0C3.58172 0 0 3.58172 0 8C0 12.4183 3.58172 16 8 16Z" fill="#85BDA6"/>
<path d="M6.2814 4.48059C4.65608 4.18459 3.37096 4.49441 2.85877 5.38153C2.47658 6.04353 2.58583 6.92122 3.12377 7.8594C3.13439 7.87889 3.1488 7.89606 3.16615 7.9099C3.18349 7.92375 3.20343 7.93399 3.22478 7.94002C3.24614 7.94606 3.26848 7.94777 3.29051 7.94506C3.31254 7.94234 3.3338 7.93526 3.35305 7.92422C3.3723 7.91318 3.38915 7.8984 3.40262 7.88076C3.41609 7.86312 3.42589 7.84297 3.43147 7.82149C3.43704 7.80001 3.43827 7.77763 3.43508 7.75567C3.43189 7.73371 3.42435 7.7126 3.4129 7.69359C2.9284 6.84847 2.83408 6.09103 3.14746 5.54822C3.57296 4.81128 4.71921 4.5349 6.22165 4.80853C6.26482 4.81572 6.30909 4.80564 6.34489 4.78046C6.3807 4.75529 6.40516 4.71704 6.41301 4.67398C6.42086 4.63092 6.41145 4.58651 6.38682 4.55032C6.3622 4.51414 6.32433 4.48909 6.2814 4.48059ZM3.96896 8.99978C4.62615 9.72197 5.47996 10.3994 6.45371 10.9615C8.8114 12.3228 11.3214 12.6866 12.5584 11.8432C12.5769 11.831 12.5928 11.8153 12.6052 11.7969C12.6175 11.7786 12.6261 11.7579 12.6304 11.7362C12.6347 11.7145 12.6346 11.6922 12.6302 11.6705C12.6258 11.6488 12.6171 11.6282 12.6046 11.6099C12.5921 11.5916 12.5761 11.576 12.5576 11.564C12.539 11.5519 12.5182 11.5437 12.4964 11.5398C12.4746 11.5359 12.4523 11.5363 12.4307 11.5411C12.4091 11.5459 12.3886 11.555 12.3706 11.5678C11.2635 12.3227 8.87921 11.977 6.6204 10.6729C5.67577 10.1275 4.84896 9.47153 4.21552 8.7754C4.20081 8.75912 4.18304 8.74589 4.16321 8.73649C4.14338 8.72709 4.12189 8.7217 4.09997 8.72063C4.07805 8.71955 4.05614 8.72281 4.03549 8.73023C4.01483 8.73764 3.99585 8.74906 3.97962 8.76383C3.96339 8.7786 3.95023 8.79643 3.94091 8.81629C3.93158 8.83616 3.92628 8.85767 3.92529 8.87959C3.9243 8.90151 3.92764 8.92342 3.93514 8.94404C3.94263 8.96467 3.95413 8.98361 3.96896 8.99978Z" fill="white"/>
<path d="M12.1638 8.79711C13.228 7.53986 13.5996 6.27536 13.0885 5.39011C12.7124 4.73867 11.9173 4.39473 10.8607 4.38098C10.8169 4.38105 10.7749 4.39834 10.7437 4.42913C10.7126 4.45992 10.6948 4.50172 10.6942 4.54551C10.6937 4.5893 10.7104 4.63155 10.7407 4.66314C10.771 4.69472 10.8126 4.7131 10.8563 4.71429C11.8067 4.72667 12.4917 5.02298 12.7998 5.55679C13.2243 6.29211 12.893 7.41973 11.9093 8.58173C11.8949 8.5984 11.8839 8.61776 11.877 8.6387C11.8701 8.65964 11.8675 8.68175 11.8692 8.70373C11.8709 8.72571 11.8769 8.74713 11.887 8.76676C11.897 8.78639 11.9108 8.80383 11.9277 8.81808C11.9445 8.83232 11.964 8.84309 11.985 8.84975C12.006 8.85641 12.0281 8.85883 12.0501 8.85688C12.0721 8.85493 12.0934 8.84865 12.1129 8.83838C12.1324 8.82812 12.1497 8.81409 12.1638 8.79711ZM9.42872 4.53617C8.46647 4.74236 7.44222 5.14548 6.4586 5.71336C4.02472 7.11854 2.43704 9.19061 2.65754 10.693C2.66048 10.7149 2.66773 10.736 2.67887 10.755C2.69001 10.774 2.70482 10.7907 2.72244 10.804C2.74006 10.8172 2.76014 10.8269 2.78151 10.8323C2.80289 10.8378 2.82513 10.839 2.84696 10.8357C2.86878 10.8325 2.88976 10.825 2.90866 10.8137C2.92756 10.8023 2.94402 10.7873 2.95708 10.7695C2.97014 10.7517 2.97954 10.7315 2.98473 10.7101C2.98993 10.6886 2.99082 10.6664 2.98735 10.6446C2.79154 9.31061 4.29654 7.34654 6.62529 6.00204C7.57947 5.45111 8.57122 5.06079 9.49854 4.86211C9.52024 4.85783 9.54087 4.84927 9.55923 4.83694C9.5776 4.82461 9.59332 4.80875 9.60549 4.79028C9.61766 4.7718 9.62603 4.7511 9.63012 4.72936C9.63421 4.70762 9.63392 4.68528 9.62929 4.66365C9.62466 4.64203 9.61577 4.62154 9.60314 4.60338C9.5905 4.58522 9.57439 4.56976 9.55572 4.55789C9.53705 4.54602 9.51621 4.53799 9.4944 4.53426C9.4726 4.53053 9.45027 4.53118 9.42872 4.53617Z" fill="white"/>
<path d="M5.48565 11.7346C6.04215 13.2884 6.95246 14.2451 7.97609 14.2451C8.72265 14.2451 9.41334 13.7361 9.95196 12.8402C9.96362 12.8214 9.97143 12.8005 9.97494 12.7787C9.97845 12.7569 9.97758 12.7346 9.9724 12.7131C9.96722 12.6916 9.95781 12.6714 9.94474 12.6536C9.93167 12.6358 9.91518 12.6207 9.89625 12.6094C9.87731 12.598 9.8563 12.5905 9.83444 12.5873C9.81258 12.5841 9.7903 12.5853 9.7689 12.5908C9.7475 12.5963 9.72741 12.606 9.70979 12.6193C9.69217 12.6326 9.67738 12.6493 9.66627 12.6684C9.18221 13.4736 8.58765 13.9117 7.97609 13.9117C7.12577 13.9117 6.31384 13.0584 5.79952 11.6223C5.79248 11.6013 5.78131 11.5819 5.76667 11.5652C5.75203 11.5485 5.73421 11.535 5.71426 11.5253C5.69431 11.5156 5.67263 11.51 5.65049 11.5088C5.62834 11.5076 5.60618 11.5108 5.5853 11.5183C5.56442 11.5258 5.54524 11.5373 5.52889 11.5523C5.51253 11.5673 5.49933 11.5854 5.49006 11.6055C5.48078 11.6257 5.47562 11.6475 5.47487 11.6696C5.47413 11.6918 5.47781 11.7139 5.48571 11.7346H5.48565ZM10.5683 11.4307C10.8564 10.5102 11.0111 9.4483 11.0111 8.34174C11.0111 5.58055 10.0446 3.2003 8.66815 2.58911C8.62794 2.57227 8.58273 2.57185 8.54221 2.58795C8.50169 2.60404 8.4691 2.63537 8.45141 2.67522C8.43372 2.71506 8.43234 2.76026 8.44757 2.8011C8.46281 2.84195 8.49344 2.87521 8.5329 2.89374C9.76059 3.43893 10.6777 5.69786 10.6777 8.34174C10.6777 9.4153 10.5279 10.4436 10.2502 11.3311C10.2433 11.3521 10.2407 11.3742 10.2424 11.3963C10.2441 11.4183 10.2502 11.4397 10.2603 11.4594C10.2704 11.479 10.2843 11.4965 10.3012 11.5107C10.3181 11.5249 10.3377 11.5356 10.3588 11.5422C10.3799 11.5488 10.402 11.5512 10.424 11.5491C10.446 11.5471 10.4674 11.5407 10.4869 11.5303C10.5064 11.5199 10.5236 11.5058 10.5376 11.4887C10.5516 11.4716 10.562 11.4518 10.5683 11.4307H10.5683ZM13.7073 11.2674C13.7073 10.8269 13.3501 10.4697 12.9096 10.4697C12.469 10.4697 12.1119 10.8269 12.1119 11.2674C12.1119 11.708 12.469 12.0651 12.9096 12.0651C13.3501 12.0651 13.7073 11.708 13.7073 11.2674ZM13.374 11.2674C13.374 11.3284 13.3619 11.3888 13.3386 11.4451C13.3153 11.5015 13.2811 11.5527 13.2379 11.5958C13.1948 11.6389 13.1436 11.6731 13.0873 11.6965C13.031 11.7198 12.9706 11.7318 12.9096 11.7318C12.8486 11.7318 12.7882 11.7198 12.7319 11.6965C12.6755 11.6731 12.6243 11.6389 12.5812 11.5958C12.5381 11.5527 12.5039 11.5015 12.4806 11.4451C12.4572 11.3888 12.4452 11.3284 12.4452 11.2674C12.4452 11.1443 12.4941 11.0262 12.5812 10.9391C12.6683 10.852 12.7864 10.8031 12.9096 10.8031C13.0327 10.8031 13.1509 10.852 13.2379 10.9391C13.325 11.0262 13.374 11.1443 13.374 11.2674ZM3.03109 12.0651C3.47171 12.0651 3.82884 11.708 3.82884 11.2674C3.82884 10.8269 3.47165 10.4697 3.03109 10.4697C2.59059 10.4697 2.2334 10.8269 2.2334 11.2674C2.2334 11.708 2.59059 12.0651 3.03109 12.0651ZM3.03109 11.7318C2.90793 11.7318 2.78981 11.6829 2.70272 11.5958C2.61564 11.5087 2.56671 11.3906 2.56671 11.2674C2.56671 11.1443 2.61564 11.0262 2.70272 10.9391C2.78981 10.852 2.90793 10.8031 3.03109 10.8031C3.15425 10.8031 3.27236 10.852 3.35945 10.9391C3.44654 11.0262 3.49546 11.1443 3.49546 11.2674C3.49546 11.3906 3.44654 11.5087 3.35945 11.5958C3.27236 11.6829 3.15425 11.7318 3.03109 11.7318Z" fill="white"/>
<path d="M7.97609 3.40275C8.41666 3.40275 8.77378 3.04562 8.77378 2.60506C8.77378 2.1645 8.41666 1.80737 7.97609 1.80737C7.53553 1.80737 7.17841 2.1645 7.17841 2.60506C7.17841 3.04562 7.53553 3.40275 7.97609 3.40275ZM7.97609 3.06944C7.85293 3.06944 7.73482 3.02051 7.64773 2.93342C7.56064 2.84634 7.51172 2.72822 7.51172 2.60506C7.51172 2.4819 7.56064 2.36379 7.64773 2.2767C7.73482 2.18961 7.85293 2.14069 7.97609 2.14069C8.09925 2.14069 8.21737 2.18961 8.30446 2.2767C8.39154 2.36379 8.44047 2.4819 8.44047 2.60506C8.44047 2.72822 8.39154 2.84634 8.30446 2.93342C8.21737 3.02051 8.09925 3.06944 7.97609 3.06944ZM8.09791 8.90581C7.78634 8.97312 7.47941 8.77512 7.41197 8.46356C7.37968 8.31395 7.40812 8.15764 7.49106 8.02899C7.57399 7.90035 7.70462 7.80991 7.85422 7.77756C8.16578 7.71025 8.47272 7.90825 8.54022 8.21981C8.60753 8.53137 8.40953 8.83837 8.09791 8.90581Z" fill="white"/>
</g>
<defs>
<clipPath id="clip0_23_314">
<rect width="16" height="16" fill="white"/>
</clipPath>
</defs>
</svg>
