<svg width="16" height="16" viewBox="0 0 16 16" fill="none" xmlns="http://www.w3.org/2000/svg">
<g clip-path="url(#clip0_24_355)">
<path fill-rule="evenodd" clip-rule="evenodd" d="M0.6 0H15.4C15.7314 0 16 0.268629 16 0.6V15.4C16 15.7314 15.7314 16 15.4 16H0.6C0.268629 16 0 15.7314 0 15.4V0.6C0 0.268629 0.268629 0 0.6 0ZM8.89428 8.51225V7.2H3.2V8.51225H5.23297V14.3551H6.85132V8.51225H8.89428ZM9.53951 14.2008C9.80049 14.3338 10.1092 14.4337 10.4655 14.5002C10.8218 14.5667 11.1974 14.6 11.5922 14.6C11.977 14.6 12.3426 14.5634 12.6889 14.4902C13.0352 14.417 13.3388 14.2964 13.5998 14.1284C13.8608 13.9604 14.0674 13.7409 14.2196 13.4698C14.3719 13.1986 14.448 12.8635 14.448 12.4643C14.448 12.1749 14.4045 11.9213 14.3175 11.7034C14.2305 11.4855 14.105 11.2917 13.9411 11.122C13.7772 10.9524 13.5806 10.8002 13.3514 10.6655C13.1222 10.5308 12.8637 10.4035 12.5759 10.2838C12.3652 10.1972 12.1761 10.1132 12.0088 10.0318C11.8415 9.95028 11.6993 9.86708 11.5822 9.78228C11.4651 9.69742 11.3748 9.60763 11.3112 9.5128C11.2476 9.41803 11.2158 9.31071 11.2158 9.19095C11.2158 9.08117 11.2443 8.98222 11.3012 8.89409C11.358 8.80591 11.4383 8.73022 11.5421 8.66702C11.6458 8.60382 11.7729 8.55477 11.9235 8.51982C12.0741 8.48492 12.2414 8.46745 12.4254 8.46745C12.5592 8.46745 12.7006 8.47742 12.8495 8.49735C12.9984 8.51735 13.1481 8.54812 13.2986 8.58966C13.4492 8.63126 13.5956 8.68363 13.7378 8.74689C13.8801 8.81009 14.0114 8.88326 14.1318 8.9664V7.47446C13.8876 7.38129 13.6207 7.31225 13.3313 7.26738C13.0418 7.22246 12.7098 7.2 12.3351 7.2C11.9536 7.2 11.5922 7.24074 11.251 7.32228C10.9097 7.40375 10.6094 7.53102 10.3501 7.704C10.0908 7.87698 9.88585 8.09735 9.73526 8.36511C9.58468 8.63292 9.50942 8.95311 9.50942 9.32566C9.50942 9.80142 9.64745 10.2073 9.92351 10.5432C10.1995 10.8792 10.6186 11.1636 11.1807 11.3965C11.4015 11.4863 11.6073 11.5745 11.798 11.661C11.9887 11.7474 12.1535 11.8373 12.2924 11.9304C12.4313 12.0236 12.5408 12.125 12.6211 12.2348C12.7014 12.3446 12.7416 12.4693 12.7416 12.609C12.7416 12.7122 12.7165 12.8078 12.6663 12.8959C12.6161 12.9841 12.54 13.0606 12.438 13.1255C12.3359 13.1903 12.2087 13.2411 12.0565 13.2777C11.9042 13.3143 11.7261 13.3326 11.522 13.3326C11.174 13.3326 10.8294 13.2719 10.4881 13.1505C10.1468 13.029 9.83065 12.8469 9.53951 12.6041V14.2008Z" fill="#3B9086"/>
</g>
<defs>
<clipPath id="clip0_24_355">
<rect width="16" height="16" fill="white"/>
</clipPath>
</defs>
</svg>
