<svg width="1640" height="224" viewBox="0 0 1640 224" fill="none" xmlns="http://www.w3.org/2000/svg">
<rect width="1640" height="224" rx="40" fill="#3B9086"/>
<path d="M87.6576 144V76.32H99.9456V133.536H132.394V144H87.6576ZM155.868 144.96C152.476 144.96 149.436 144.32 146.748 143.04C144.124 141.696 142.044 139.904 140.508 137.664C139.036 135.424 138.3 132.896 138.3 130.08C138.3 126.624 139.196 123.904 140.988 121.92C142.78 119.872 145.692 118.4 149.724 117.504C153.756 116.608 159.164 116.16 165.948 116.16H170.748V123.072H166.044C163.036 123.072 160.508 123.2 158.46 123.456C156.412 123.648 154.748 124 153.468 124.512C152.252 124.96 151.356 125.6 150.78 126.432C150.268 127.264 150.012 128.288 150.012 129.504C150.012 131.616 150.748 133.344 152.22 134.688C153.692 136.032 155.74 136.704 158.364 136.704C160.476 136.704 162.332 136.224 163.932 135.264C165.596 134.24 166.908 132.864 167.868 131.136C168.828 129.408 169.308 127.424 169.308 125.184V114.144C169.308 110.944 168.604 108.64 167.196 107.232C165.788 105.824 163.42 105.12 160.092 105.12C157.468 105.12 154.78 105.536 152.028 106.368C149.276 107.136 146.492 108.352 143.676 110.016L140.22 101.856C141.884 100.704 143.836 99.712 146.076 98.88C148.38 97.984 150.78 97.312 153.276 96.864C155.836 96.352 158.236 96.096 160.476 96.096C165.084 96.096 168.86 96.8 171.804 98.208C174.812 99.616 177.052 101.76 178.524 104.64C179.996 107.456 180.732 111.104 180.732 115.584V144H169.5V134.016H170.268C169.82 136.256 168.924 138.208 167.58 139.872C166.3 141.472 164.668 142.72 162.684 143.616C160.7 144.512 158.428 144.96 155.868 144.96ZM192.912 144V97.056H204.624V106.464H203.568C204.976 103.072 207.152 100.512 210.096 98.784C213.104 96.992 216.496 96.096 220.272 96.096C224.048 96.096 227.152 96.8 229.584 98.208C232.016 99.616 233.84 101.76 235.056 104.64C236.272 107.456 236.88 111.04 236.88 115.392V144H224.88V115.968C224.88 113.536 224.56 111.552 223.92 110.016C223.344 108.48 222.416 107.36 221.136 106.656C219.92 105.888 218.352 105.504 216.432 105.504C214.128 105.504 212.112 106.016 210.384 107.04C208.656 108 207.312 109.408 206.352 111.264C205.392 113.056 204.912 115.168 204.912 117.6V144H192.912ZM270.956 162.24C266.604 162.24 262.508 161.728 258.668 160.704C254.892 159.744 251.564 158.24 248.684 156.192L252.14 147.84C253.932 148.992 255.82 149.952 257.804 150.72C259.788 151.552 261.804 152.16 263.852 152.544C265.9 152.928 267.948 153.12 269.996 153.12C274.284 153.12 277.484 152.064 279.596 149.952C281.772 147.904 282.86 144.832 282.86 140.736V132.096H283.724C282.764 135.36 280.748 137.984 277.676 139.968C274.668 141.888 271.244 142.848 267.404 142.848C263.18 142.848 259.5 141.888 256.364 139.968C253.228 137.984 250.796 135.232 249.068 131.712C247.34 128.192 246.476 124.096 246.476 119.424C246.476 114.752 247.34 110.688 249.068 107.232C250.796 103.712 253.228 100.992 256.364 99.072C259.5 97.088 263.18 96.096 267.404 96.096C271.372 96.096 274.828 97.088 277.772 99.072C280.78 100.992 282.732 103.552 283.628 106.752H282.86V97.056H294.572V139.296C294.572 144.352 293.676 148.576 291.884 151.968C290.092 155.424 287.436 157.984 283.916 159.648C280.396 161.376 276.076 162.24 270.956 162.24ZM270.668 133.728C274.38 133.728 277.324 132.448 279.5 129.888C281.676 127.328 282.764 123.84 282.764 119.424C282.764 115.008 281.676 111.552 279.5 109.056C277.324 106.496 274.38 105.216 270.668 105.216C266.956 105.216 264.012 106.496 261.836 109.056C259.66 111.552 258.572 115.008 258.572 119.424C258.572 123.84 259.66 127.328 261.836 129.888C264.012 132.448 266.956 133.728 270.668 133.728ZM323.998 144.96C320.094 144.96 316.862 144.256 314.302 142.848C311.742 141.376 309.822 139.2 308.542 136.32C307.326 133.44 306.718 129.856 306.718 125.568V97.056H318.718V125.76C318.718 127.936 319.006 129.76 319.582 131.232C320.222 132.704 321.15 133.792 322.366 134.496C323.646 135.2 325.246 135.552 327.166 135.552C329.342 135.552 331.23 135.072 332.83 134.112C334.494 133.088 335.774 131.68 336.67 129.888C337.63 128.032 338.11 125.888 338.11 123.456V97.056H350.11V144H338.398V134.208H339.742C338.398 137.664 336.35 140.32 333.598 142.176C330.91 144.032 327.71 144.96 323.998 144.96ZM378.055 144.96C374.663 144.96 371.623 144.32 368.935 143.04C366.311 141.696 364.231 139.904 362.695 137.664C361.223 135.424 360.487 132.896 360.487 130.08C360.487 126.624 361.383 123.904 363.175 121.92C364.967 119.872 367.879 118.4 371.911 117.504C375.943 116.608 381.351 116.16 388.135 116.16H392.935V123.072H388.231C385.223 123.072 382.695 123.2 380.647 123.456C378.599 123.648 376.935 124 375.655 124.512C374.439 124.96 373.543 125.6 372.967 126.432C372.455 127.264 372.199 128.288 372.199 129.504C372.199 131.616 372.935 133.344 374.407 134.688C375.879 136.032 377.927 136.704 380.551 136.704C382.663 136.704 384.519 136.224 386.119 135.264C387.783 134.24 389.095 132.864 390.055 131.136C391.015 129.408 391.495 127.424 391.495 125.184V114.144C391.495 110.944 390.791 108.64 389.383 107.232C387.975 105.824 385.607 105.12 382.279 105.12C379.655 105.12 376.967 105.536 374.215 106.368C371.463 107.136 368.679 108.352 365.863 110.016L362.407 101.856C364.071 100.704 366.023 99.712 368.263 98.88C370.567 97.984 372.967 97.312 375.463 96.864C378.023 96.352 380.423 96.096 382.663 96.096C387.271 96.096 391.047 96.8 393.991 98.208C396.999 99.616 399.239 101.76 400.711 104.64C402.183 107.456 402.919 111.104 402.919 115.584V144H391.687V134.016H392.455C392.007 136.256 391.111 138.208 389.767 139.872C388.487 141.472 386.855 142.72 384.871 143.616C382.887 144.512 380.615 144.96 378.055 144.96ZM436.987 162.24C432.635 162.24 428.539 161.728 424.699 160.704C420.923 159.744 417.595 158.24 414.715 156.192L418.171 147.84C419.963 148.992 421.851 149.952 423.835 150.72C425.819 151.552 427.835 152.16 429.883 152.544C431.931 152.928 433.979 153.12 436.027 153.12C440.315 153.12 443.515 152.064 445.627 149.952C447.803 147.904 448.891 144.832 448.891 140.736V132.096H449.755C448.795 135.36 446.779 137.984 443.707 139.968C440.699 141.888 437.275 142.848 433.435 142.848C429.211 142.848 425.531 141.888 422.395 139.968C419.259 137.984 416.827 135.232 415.099 131.712C413.371 128.192 412.507 124.096 412.507 119.424C412.507 114.752 413.371 110.688 415.099 107.232C416.827 103.712 419.259 100.992 422.395 99.072C425.531 97.088 429.211 96.096 433.435 96.096C437.403 96.096 440.859 97.088 443.803 99.072C446.811 100.992 448.763 103.552 449.659 106.752H448.891V97.056H460.603V139.296C460.603 144.352 459.707 148.576 457.915 151.968C456.123 155.424 453.467 157.984 449.947 159.648C446.427 161.376 442.107 162.24 436.987 162.24ZM436.699 133.728C440.411 133.728 443.355 132.448 445.531 129.888C447.707 127.328 448.795 123.84 448.795 119.424C448.795 115.008 447.707 111.552 445.531 109.056C443.355 106.496 440.411 105.216 436.699 105.216C432.987 105.216 430.043 106.496 427.867 109.056C425.691 111.552 424.603 115.008 424.603 119.424C424.603 123.84 425.691 127.328 427.867 129.888C430.043 132.448 432.987 133.728 436.699 133.728ZM496.173 144.96C490.861 144.96 486.285 143.968 482.445 141.984C478.605 140 475.629 137.184 473.517 133.536C471.469 129.888 470.445 125.568 470.445 120.576C470.445 115.712 471.437 111.456 473.421 107.808C475.469 104.16 478.253 101.312 481.773 99.264C485.357 97.152 489.421 96.096 493.965 96.096C498.445 96.096 502.285 97.056 505.485 98.976C508.685 100.896 511.149 103.616 512.877 107.136C514.669 110.656 515.565 114.848 515.565 119.712V123.264H480.141V116.352H507.117L505.581 117.792C505.581 113.44 504.621 110.112 502.701 107.808C500.781 105.44 498.029 104.256 494.445 104.256C491.757 104.256 489.453 104.896 487.533 106.176C485.677 107.392 484.237 109.152 483.213 111.456C482.253 113.696 481.773 116.384 481.773 119.52V120.192C481.773 123.712 482.317 126.624 483.405 128.928C484.493 131.232 486.125 132.96 488.301 134.112C490.477 135.264 493.165 135.84 496.365 135.84C498.989 135.84 501.613 135.456 504.237 134.688C506.861 133.856 509.261 132.576 511.437 130.848L514.797 138.912C512.557 140.768 509.741 142.24 506.349 143.328C502.957 144.416 499.565 144.96 496.173 144.96ZM542.252 144.96C539.628 144.96 537.068 144.736 534.572 144.288C532.14 143.84 529.9 143.232 527.852 142.464C525.804 141.632 524.012 140.608 522.476 139.392L525.548 131.52C527.148 132.544 528.876 133.44 530.732 134.208C532.588 134.976 534.508 135.552 536.492 135.936C538.476 136.32 540.428 136.512 542.348 136.512C545.42 136.512 547.692 136 549.164 134.976C550.7 133.888 551.468 132.48 551.468 130.752C551.468 129.28 550.956 128.16 549.932 127.392C548.972 126.56 547.5 125.952 545.516 125.568L535.916 123.744C531.948 122.976 528.908 121.536 526.796 119.424C524.748 117.248 523.724 114.464 523.724 111.072C523.724 108 524.556 105.344 526.22 103.104C527.948 100.864 530.316 99.136 533.324 97.92C536.332 96.704 539.788 96.096 543.692 96.096C545.932 96.096 548.108 96.32 550.22 96.768C552.332 97.152 554.316 97.76 556.172 98.592C558.092 99.36 559.756 100.384 561.164 101.664L557.9 109.536C556.684 108.512 555.276 107.648 553.676 106.944C552.076 106.176 550.412 105.6 548.684 105.216C547.02 104.768 545.388 104.544 543.788 104.544C540.652 104.544 538.316 105.088 536.78 106.176C535.308 107.264 534.572 108.704 534.572 110.496C534.572 111.84 535.02 112.96 535.916 113.856C536.812 114.752 538.188 115.36 540.044 115.68L549.644 117.504C553.804 118.272 556.94 119.68 559.052 121.728C561.228 123.776 562.316 126.528 562.316 129.984C562.316 133.12 561.484 135.808 559.82 138.048C558.156 140.288 555.82 142.016 552.812 143.232C549.804 144.384 546.284 144.96 542.252 144.96ZM613.274 144.96C609.882 144.96 606.842 144.32 604.154 143.04C601.53 141.696 599.45 139.904 597.914 137.664C596.442 135.424 595.706 132.896 595.706 130.08C595.706 126.624 596.602 123.904 598.394 121.92C600.186 119.872 603.098 118.4 607.13 117.504C611.162 116.608 616.57 116.16 623.354 116.16H628.154V123.072H623.45C620.442 123.072 617.914 123.2 615.866 123.456C613.818 123.648 612.154 124 610.874 124.512C609.658 124.96 608.762 125.6 608.186 126.432C607.674 127.264 607.418 128.288 607.418 129.504C607.418 131.616 608.154 133.344 609.626 134.688C611.098 136.032 613.146 136.704 615.77 136.704C617.882 136.704 619.738 136.224 621.338 135.264C623.002 134.24 624.314 132.864 625.274 131.136C626.234 129.408 626.714 127.424 626.714 125.184V114.144C626.714 110.944 626.01 108.64 624.602 107.232C623.194 105.824 620.826 105.12 617.498 105.12C614.874 105.12 612.186 105.536 609.434 106.368C606.682 107.136 603.898 108.352 601.082 110.016L597.626 101.856C599.29 100.704 601.242 99.712 603.482 98.88C605.786 97.984 608.186 97.312 610.682 96.864C613.242 96.352 615.642 96.096 617.882 96.096C622.49 96.096 626.266 96.8 629.21 98.208C632.218 99.616 634.458 101.76 635.93 104.64C637.402 107.456 638.138 111.104 638.138 115.584V144H626.906V134.016H627.674C627.226 136.256 626.33 138.208 624.986 139.872C623.706 141.472 622.074 142.72 620.09 143.616C618.106 144.512 615.834 144.96 613.274 144.96ZM650.318 144V97.056H662.03V106.464H660.974C662.382 103.072 664.558 100.512 667.502 98.784C670.51 96.992 673.902 96.096 677.678 96.096C681.454 96.096 684.558 96.8 686.99 98.208C689.422 99.616 691.246 101.76 692.462 104.64C693.678 107.456 694.286 111.04 694.286 115.392V144H682.286V115.968C682.286 113.536 681.966 111.552 681.326 110.016C680.75 108.48 679.822 107.36 678.542 106.656C677.326 105.888 675.758 105.504 673.838 105.504C671.534 105.504 669.518 106.016 667.79 107.04C666.062 108 664.718 109.408 663.758 111.264C662.798 113.056 662.318 115.168 662.318 117.6V144H650.318ZM724.522 144.96C720.426 144.96 716.81 143.968 713.674 141.984C710.602 140 708.202 137.184 706.474 133.536C704.746 129.824 703.882 125.472 703.882 120.48C703.882 115.424 704.746 111.104 706.474 107.52C708.202 103.872 710.602 101.056 713.674 99.072C716.81 97.088 720.426 96.096 724.522 96.096C728.426 96.096 731.818 97.056 734.698 98.976C737.642 100.896 739.626 103.424 740.65 106.56H739.594V76.32H751.594V144H739.882V134.016H740.746C739.786 137.344 737.834 140 734.89 141.984C731.946 143.968 728.49 144.96 724.522 144.96ZM727.882 135.84C731.466 135.84 734.346 134.56 736.522 132C738.698 129.376 739.786 125.536 739.786 120.48C739.786 115.36 738.698 111.552 736.522 109.056C734.346 106.496 731.466 105.216 727.882 105.216C724.298 105.216 721.418 106.496 719.242 109.056C717.066 111.552 715.978 115.36 715.978 120.48C715.978 125.536 717.066 129.376 719.242 132C721.418 134.56 724.298 135.84 727.882 135.84ZM811.416 144.96C805.144 144.96 800.472 143.392 797.4 140.256C794.328 137.12 792.792 132.544 792.792 126.528V106.08H783.768V97.056H792.792V83.04H804.792V97.056H819V106.08H804.792V125.856C804.792 128.928 805.464 131.232 806.808 132.768C808.152 134.304 810.328 135.072 813.336 135.072C814.232 135.072 815.16 134.976 816.12 134.784C817.08 134.528 818.072 134.272 819.096 134.016L820.92 142.848C819.768 143.488 818.296 144 816.504 144.384C814.776 144.768 813.08 144.96 811.416 144.96ZM847.695 144.96C842.831 144.96 838.607 143.968 835.023 141.984C831.439 140 828.655 137.184 826.671 133.536C824.687 129.824 823.695 125.472 823.695 120.48C823.695 115.488 824.687 111.168 826.671 107.52C828.655 103.872 831.439 101.056 835.023 99.072C838.607 97.088 842.831 96.096 847.695 96.096C852.559 96.096 856.783 97.088 860.367 99.072C863.951 101.056 866.735 103.872 868.719 107.52C870.703 111.168 871.695 115.488 871.695 120.48C871.695 125.472 870.703 129.824 868.719 133.536C866.735 137.184 863.951 140 860.367 141.984C856.783 143.968 852.559 144.96 847.695 144.96ZM847.695 135.84C851.279 135.84 854.159 134.56 856.335 132C858.511 129.376 859.599 125.536 859.599 120.48C859.599 115.36 858.511 111.552 856.335 109.056C854.159 106.496 851.279 105.216 847.695 105.216C844.111 105.216 841.231 106.496 839.055 109.056C836.879 111.552 835.791 115.36 835.791 120.48C835.791 125.536 836.879 129.376 839.055 132C841.231 134.56 844.111 135.84 847.695 135.84ZM903.007 144.96C898.143 144.96 893.919 143.968 890.335 141.984C886.751 140 883.967 137.184 881.983 133.536C879.999 129.824 879.007 125.472 879.007 120.48C879.007 115.488 879.999 111.168 881.983 107.52C883.967 103.872 886.751 101.056 890.335 99.072C893.919 97.088 898.143 96.096 903.007 96.096C907.871 96.096 912.095 97.088 915.679 99.072C919.263 101.056 922.047 103.872 924.031 107.52C926.015 111.168 927.007 115.488 927.007 120.48C927.007 125.472 926.015 129.824 924.031 133.536C922.047 137.184 919.263 140 915.679 141.984C912.095 143.968 907.871 144.96 903.007 144.96ZM903.007 135.84C906.591 135.84 909.471 134.56 911.647 132C913.823 129.376 914.911 125.536 914.911 120.48C914.911 115.36 913.823 111.552 911.647 109.056C909.471 106.496 906.591 105.216 903.007 105.216C899.423 105.216 896.543 106.496 894.367 109.056C892.191 111.552 891.103 115.36 891.103 120.48C891.103 125.536 892.191 129.376 894.367 132C896.543 134.56 899.423 135.84 903.007 135.84ZM953.232 144.96C947.664 144.96 943.536 143.456 940.848 140.448C938.224 137.376 936.912 132.896 936.912 127.008V76.32H948.912V126.432C948.912 128.288 949.168 129.888 949.68 131.232C950.256 132.512 951.088 133.472 952.176 134.112C953.264 134.752 954.608 135.072 956.208 135.072C956.912 135.072 957.616 135.04 958.32 134.976C959.024 134.912 959.696 134.784 960.336 134.592L960.144 144.096C958.992 144.352 957.84 144.544 956.688 144.672C955.6 144.864 954.448 144.96 953.232 144.96ZM984.283 144.96C981.659 144.96 979.099 144.736 976.603 144.288C974.171 143.84 971.931 143.232 969.883 142.464C967.835 141.632 966.043 140.608 964.507 139.392L967.579 131.52C969.179 132.544 970.907 133.44 972.763 134.208C974.619 134.976 976.539 135.552 978.523 135.936C980.507 136.32 982.459 136.512 984.379 136.512C987.451 136.512 989.723 136 991.195 134.976C992.731 133.888 993.499 132.48 993.499 130.752C993.499 129.28 992.987 128.16 991.963 127.392C991.003 126.56 989.531 125.952 987.547 125.568L977.947 123.744C973.979 122.976 970.939 121.536 968.827 119.424C966.779 117.248 965.755 114.464 965.755 111.072C965.755 108 966.587 105.344 968.251 103.104C969.979 100.864 972.347 99.136 975.355 97.92C978.363 96.704 981.819 96.096 985.723 96.096C987.963 96.096 990.139 96.32 992.251 96.768C994.363 97.152 996.347 97.76 998.203 98.592C1000.12 99.36 1001.79 100.384 1003.2 101.664L999.931 109.536C998.715 108.512 997.307 107.648 995.707 106.944C994.107 106.176 992.443 105.6 990.715 105.216C989.051 104.768 987.419 104.544 985.819 104.544C982.683 104.544 980.347 105.088 978.811 106.176C977.339 107.264 976.603 108.704 976.603 110.496C976.603 111.84 977.051 112.96 977.947 113.856C978.843 114.752 980.219 115.36 982.075 115.68L991.675 117.504C995.835 118.272 998.971 119.68 1001.08 121.728C1003.26 123.776 1004.35 126.528 1004.35 129.984C1004.35 133.12 1003.52 135.808 1001.85 138.048C1000.19 140.288 997.851 142.016 994.843 143.232C991.835 144.384 988.315 144.96 984.283 144.96Z" fill="white"/>
</svg>
