<svg width="1640" height="224" viewBox="0 0 1640 224" fill="none" xmlns="http://www.w3.org/2000/svg">
<rect width="1640" height="224" rx="40" fill="#3B9086"/>
<path d="M87.4389 144V76.32H116.815C121.807 76.32 126.031 77.152 129.487 78.816C132.943 80.48 135.567 82.88 137.359 86.016C139.151 89.152 140.047 92.96 140.047 97.44C140.047 101.856 139.151 105.664 137.359 108.864C135.567 112 132.943 114.432 129.487 116.16C126.031 117.824 121.807 118.656 116.815 118.656H99.7269V144H87.4389ZM99.7269 108.96H114.895C119.247 108.96 122.543 108 124.783 106.08C127.023 104.096 128.143 101.216 128.143 97.44C128.143 93.664 127.023 90.816 124.783 88.896C122.543 86.976 119.247 86.016 114.895 86.016H99.7269V108.96ZM147.974 144V97.056H159.686V108.384H158.726C159.622 104.544 161.382 101.632 164.006 99.648C166.63 97.6 170.118 96.416 174.47 96.096L178.118 95.808L178.886 105.984L171.974 106.656C168.07 107.04 165.126 108.256 163.142 110.304C161.158 112.288 160.166 115.104 160.166 118.752V144H147.974ZM206.226 144.96C201.362 144.96 197.138 143.968 193.554 141.984C189.97 140 187.186 137.184 185.202 133.536C183.218 129.824 182.226 125.472 182.226 120.48C182.226 115.488 183.218 111.168 185.202 107.52C187.186 103.872 189.97 101.056 193.554 99.072C197.138 97.088 201.362 96.096 206.226 96.096C211.09 96.096 215.314 97.088 218.898 99.072C222.482 101.056 225.266 103.872 227.25 107.52C229.234 111.168 230.226 115.488 230.226 120.48C230.226 125.472 229.234 129.824 227.25 133.536C225.266 137.184 222.482 140 218.898 141.984C215.314 143.968 211.09 144.96 206.226 144.96ZM206.226 135.84C209.81 135.84 212.69 134.56 214.866 132C217.042 129.376 218.13 125.536 218.13 120.48C218.13 115.36 217.042 111.552 214.866 109.056C212.69 106.496 209.81 105.216 206.226 105.216C202.642 105.216 199.762 106.496 197.586 109.056C195.41 111.552 194.322 115.36 194.322 120.48C194.322 125.536 195.41 129.376 197.586 132C199.762 134.56 202.642 135.84 206.226 135.84ZM239.747 86.976V75.264H253.187V86.976H239.747ZM229.571 162.528L228.707 153.792L233.123 153.312C235.619 152.992 237.475 152.128 238.691 150.72C239.907 149.376 240.515 147.36 240.515 144.672V97.056H252.515V143.136C252.515 146.272 252.163 148.992 251.459 151.296C250.755 153.6 249.667 155.52 248.195 157.056C246.723 158.592 244.771 159.776 242.339 160.608C239.971 161.44 237.091 161.984 233.699 162.24L229.571 162.528ZM288.11 144.96C282.798 144.96 278.222 143.968 274.382 141.984C270.542 140 267.566 137.184 265.454 133.536C263.406 129.888 262.382 125.568 262.382 120.576C262.382 115.712 263.374 111.456 265.358 107.808C267.406 104.16 270.19 101.312 273.71 99.264C277.294 97.152 281.358 96.096 285.902 96.096C290.382 96.096 294.222 97.056 297.422 98.976C300.622 100.896 303.086 103.616 304.814 107.136C306.606 110.656 307.502 114.848 307.502 119.712V123.264H272.078V116.352H299.054L297.518 117.792C297.518 113.44 296.558 110.112 294.638 107.808C292.718 105.44 289.966 104.256 286.382 104.256C283.694 104.256 281.39 104.896 279.47 106.176C277.614 107.392 276.174 109.152 275.15 111.456C274.19 113.696 273.71 116.384 273.71 119.52V120.192C273.71 123.712 274.254 126.624 275.342 128.928C276.43 131.232 278.062 132.96 280.238 134.112C282.414 135.264 285.102 135.84 288.302 135.84C290.926 135.84 293.55 135.456 296.174 134.688C298.798 133.856 301.198 132.576 303.374 130.848L306.734 138.912C304.494 140.768 301.678 142.24 298.286 143.328C294.894 144.416 291.502 144.96 288.11 144.96ZM338.702 144.96C333.774 144.96 329.486 143.968 325.838 141.984C322.19 139.936 319.374 137.056 317.39 133.344C315.406 129.632 314.414 125.28 314.414 120.288C314.414 115.296 315.406 111.008 317.39 107.424C319.374 103.776 322.19 100.992 325.838 99.072C329.486 97.088 333.774 96.096 338.702 96.096C341.71 96.096 344.686 96.576 347.63 97.536C350.574 98.496 353.006 99.84 354.926 101.568L351.374 109.92C349.71 108.448 347.822 107.328 345.71 106.56C343.662 105.792 341.678 105.408 339.758 105.408C335.598 105.408 332.366 106.72 330.062 109.344C327.822 111.904 326.702 115.584 326.702 120.384C326.702 125.12 327.822 128.864 330.062 131.616C332.366 134.304 335.598 135.648 339.758 135.648C341.614 135.648 343.598 135.264 345.71 134.496C347.822 133.728 349.71 132.576 351.374 131.04L354.926 139.488C353.006 141.152 350.542 142.496 347.534 143.52C344.59 144.48 341.646 144.96 338.702 144.96ZM383.978 144.96C377.706 144.96 373.034 143.392 369.962 140.256C366.89 137.12 365.354 132.544 365.354 126.528V106.08H356.33V97.056H365.354V83.04H377.354V97.056H391.562V106.08H377.354V125.856C377.354 128.928 378.026 131.232 379.37 132.768C380.714 134.304 382.89 135.072 385.898 135.072C386.794 135.072 387.722 134.976 388.682 134.784C389.642 134.528 390.634 134.272 391.658 134.016L393.482 142.848C392.33 143.488 390.858 144 389.066 144.384C387.338 144.768 385.642 144.96 383.978 144.96ZM416.502 144.96C413.878 144.96 411.318 144.736 408.822 144.288C406.39 143.84 404.15 143.232 402.102 142.464C400.054 141.632 398.262 140.608 396.726 139.392L399.798 131.52C401.398 132.544 403.126 133.44 404.982 134.208C406.838 134.976 408.758 135.552 410.742 135.936C412.726 136.32 414.678 136.512 416.598 136.512C419.67 136.512 421.942 136 423.414 134.976C424.95 133.888 425.718 132.48 425.718 130.752C425.718 129.28 425.206 128.16 424.182 127.392C423.222 126.56 421.75 125.952 419.766 125.568L410.166 123.744C406.198 122.976 403.158 121.536 401.046 119.424C398.998 117.248 397.974 114.464 397.974 111.072C397.974 108 398.806 105.344 400.47 103.104C402.198 100.864 404.566 99.136 407.574 97.92C410.582 96.704 414.038 96.096 417.942 96.096C420.182 96.096 422.358 96.32 424.47 96.768C426.582 97.152 428.566 97.76 430.422 98.592C432.342 99.36 434.006 100.384 435.414 101.664L432.15 109.536C430.934 108.512 429.526 107.648 427.926 106.944C426.326 106.176 424.662 105.6 422.934 105.216C421.27 104.768 419.638 104.544 418.038 104.544C414.902 104.544 412.566 105.088 411.03 106.176C409.558 107.264 408.822 108.704 408.822 110.496C408.822 111.84 409.27 112.96 410.166 113.856C411.062 114.752 412.438 115.36 414.294 115.68L423.894 117.504C428.054 118.272 431.19 119.68 433.302 121.728C435.478 123.776 436.566 126.528 436.566 129.984C436.566 133.12 435.734 135.808 434.07 138.048C432.406 140.288 430.07 142.016 427.062 143.232C424.054 144.384 420.534 144.96 416.502 144.96Z" fill="white"/>
</svg>
