<svg width="1640" height="224" viewBox="0 0 1640 224" fill="none" xmlns="http://www.w3.org/2000/svg">
<rect width="1640" height="224" rx="40" fill="#3B9086"/>
<path d="M87.6576 144V76.32H117.034C124.458 76.32 130.186 78.112 134.218 81.696C138.25 85.216 140.266 90.176 140.266 96.576C140.266 100.736 139.338 104.32 137.482 107.328C135.69 110.336 133.066 112.64 129.61 114.24C126.154 115.84 121.962 116.64 117.034 116.64L117.898 115.2H121.066C123.69 115.2 125.962 115.84 127.882 117.12C129.866 118.4 131.594 120.416 133.066 123.168L144.394 144H130.858L119.146 122.4C118.378 120.992 117.514 119.904 116.554 119.136C115.594 118.304 114.506 117.728 113.29 117.408C112.074 117.088 110.666 116.928 109.066 116.928H99.9456V144H87.6576ZM99.9456 107.808H114.922C119.338 107.808 122.666 106.912 124.906 105.12C127.21 103.264 128.362 100.512 128.362 96.864C128.362 93.28 127.21 90.592 124.906 88.8C122.666 86.944 119.338 86.016 114.922 86.016H99.9456V107.808ZM174.235 144.96C168.923 144.96 164.347 143.968 160.507 141.984C156.667 140 153.691 137.184 151.579 133.536C149.531 129.888 148.507 125.568 148.507 120.576C148.507 115.712 149.499 111.456 151.483 107.808C153.531 104.16 156.315 101.312 159.835 99.264C163.419 97.152 167.483 96.096 172.027 96.096C176.507 96.096 180.347 97.056 183.547 98.976C186.747 100.896 189.211 103.616 190.939 107.136C192.731 110.656 193.627 114.848 193.627 119.712V123.264H158.203V116.352H185.179L183.643 117.792C183.643 113.44 182.683 110.112 180.763 107.808C178.843 105.44 176.091 104.256 172.507 104.256C169.819 104.256 167.515 104.896 165.595 106.176C163.739 107.392 162.299 109.152 161.275 111.456C160.315 113.696 159.835 116.384 159.835 119.52V120.192C159.835 123.712 160.379 126.624 161.467 128.928C162.555 131.232 164.187 132.96 166.363 134.112C168.539 135.264 171.227 135.84 174.427 135.84C177.051 135.84 179.675 135.456 182.299 134.688C184.923 133.856 187.323 132.576 189.499 130.848L192.859 138.912C190.619 140.768 187.803 142.24 184.411 143.328C181.019 144.416 177.627 144.96 174.235 144.96ZM224.827 144.96C219.899 144.96 215.611 143.968 211.963 141.984C208.315 139.936 205.499 137.056 203.515 133.344C201.531 129.632 200.539 125.28 200.539 120.288C200.539 115.296 201.531 111.008 203.515 107.424C205.499 103.776 208.315 100.992 211.963 99.072C215.611 97.088 219.899 96.096 224.827 96.096C227.835 96.096 230.811 96.576 233.755 97.536C236.699 98.496 239.131 99.84 241.051 101.568L237.499 109.92C235.835 108.448 233.947 107.328 231.835 106.56C229.787 105.792 227.803 105.408 225.883 105.408C221.723 105.408 218.491 106.72 216.187 109.344C213.947 111.904 212.827 115.584 212.827 120.384C212.827 125.12 213.947 128.864 216.187 131.616C218.491 134.304 221.723 135.648 225.883 135.648C227.739 135.648 229.723 135.264 231.835 134.496C233.947 133.728 235.835 132.576 237.499 131.04L241.051 139.488C239.131 141.152 236.667 142.496 233.659 143.52C230.715 144.48 227.771 144.96 224.827 144.96ZM270.61 144.96C265.298 144.96 260.722 143.968 256.882 141.984C253.042 140 250.066 137.184 247.954 133.536C245.906 129.888 244.882 125.568 244.882 120.576C244.882 115.712 245.874 111.456 247.858 107.808C249.906 104.16 252.69 101.312 256.21 99.264C259.794 97.152 263.858 96.096 268.402 96.096C272.882 96.096 276.722 97.056 279.922 98.976C283.122 100.896 285.586 103.616 287.314 107.136C289.106 110.656 290.002 114.848 290.002 119.712V123.264H254.578V116.352H281.554L280.018 117.792C280.018 113.44 279.058 110.112 277.138 107.808C275.218 105.44 272.466 104.256 268.882 104.256C266.194 104.256 263.89 104.896 261.97 106.176C260.114 107.392 258.674 109.152 257.65 111.456C256.69 113.696 256.21 116.384 256.21 119.52V120.192C256.21 123.712 256.754 126.624 257.842 128.928C258.93 131.232 260.562 132.96 262.738 134.112C264.914 135.264 267.602 135.84 270.802 135.84C273.426 135.84 276.05 135.456 278.674 134.688C281.298 133.856 283.698 132.576 285.874 130.848L289.234 138.912C286.994 140.768 284.178 142.24 280.786 143.328C277.394 144.416 274.002 144.96 270.61 144.96ZM299.506 144V97.056H311.218V106.464H310.162C311.57 103.072 313.746 100.512 316.69 98.784C319.698 96.992 323.09 96.096 326.866 96.096C330.642 96.096 333.746 96.8 336.178 98.208C338.61 99.616 340.434 101.76 341.65 104.64C342.866 107.456 343.474 111.04 343.474 115.392V144H331.474V115.968C331.474 113.536 331.154 111.552 330.514 110.016C329.938 108.48 329.01 107.36 327.73 106.656C326.514 105.888 324.946 105.504 323.026 105.504C320.722 105.504 318.706 106.016 316.978 107.04C315.25 108 313.906 109.408 312.946 111.264C311.986 113.056 311.506 115.168 311.506 117.6V144H299.506ZM377.166 144.96C370.894 144.96 366.222 143.392 363.15 140.256C360.078 137.12 358.542 132.544 358.542 126.528V106.08H349.518V97.056H358.542V83.04H370.542V97.056H384.75V106.08H370.542V125.856C370.542 128.928 371.214 131.232 372.558 132.768C373.902 134.304 376.078 135.072 379.086 135.072C379.982 135.072 380.91 134.976 381.87 134.784C382.83 134.528 383.822 134.272 384.846 134.016L386.67 142.848C385.518 143.488 384.046 144 382.254 144.384C380.526 144.768 378.83 144.96 377.166 144.96ZM433.837 144.96C430.445 144.96 427.405 144.32 424.717 143.04C422.093 141.696 420.013 139.904 418.477 137.664C417.005 135.424 416.269 132.896 416.269 130.08C416.269 126.624 417.165 123.904 418.957 121.92C420.749 119.872 423.661 118.4 427.693 117.504C431.725 116.608 437.133 116.16 443.917 116.16H448.717V123.072H444.013C441.005 123.072 438.477 123.2 436.429 123.456C434.381 123.648 432.717 124 431.437 124.512C430.221 124.96 429.325 125.6 428.749 126.432C428.237 127.264 427.981 128.288 427.981 129.504C427.981 131.616 428.717 133.344 430.189 134.688C431.661 136.032 433.709 136.704 436.333 136.704C438.445 136.704 440.301 136.224 441.901 135.264C443.565 134.24 444.877 132.864 445.837 131.136C446.797 129.408 447.277 127.424 447.277 125.184V114.144C447.277 110.944 446.573 108.64 445.165 107.232C443.757 105.824 441.389 105.12 438.061 105.12C435.437 105.12 432.749 105.536 429.997 106.368C427.245 107.136 424.461 108.352 421.645 110.016L418.189 101.856C419.853 100.704 421.805 99.712 424.045 98.88C426.349 97.984 428.749 97.312 431.245 96.864C433.805 96.352 436.205 96.096 438.445 96.096C443.053 96.096 446.829 96.8 449.773 98.208C452.781 99.616 455.021 101.76 456.493 104.64C457.965 107.456 458.701 111.104 458.701 115.584V144H447.469V134.016H448.237C447.789 136.256 446.893 138.208 445.549 139.872C444.269 141.472 442.637 142.72 440.653 143.616C438.669 144.512 436.397 144.96 433.837 144.96ZM492.577 144.96C487.649 144.96 483.361 143.968 479.713 141.984C476.065 139.936 473.249 137.056 471.265 133.344C469.281 129.632 468.289 125.28 468.289 120.288C468.289 115.296 469.281 111.008 471.265 107.424C473.249 103.776 476.065 100.992 479.713 99.072C483.361 97.088 487.649 96.096 492.577 96.096C495.585 96.096 498.561 96.576 501.505 97.536C504.449 98.496 506.881 99.84 508.801 101.568L505.249 109.92C503.585 108.448 501.697 107.328 499.585 106.56C497.537 105.792 495.553 105.408 493.633 105.408C489.473 105.408 486.241 106.72 483.937 109.344C481.697 111.904 480.577 115.584 480.577 120.384C480.577 125.12 481.697 128.864 483.937 131.616C486.241 134.304 489.473 135.648 493.633 135.648C495.489 135.648 497.473 135.264 499.585 134.496C501.697 133.728 503.585 132.576 505.249 131.04L508.801 139.488C506.881 141.152 504.417 142.496 501.409 143.52C498.465 144.48 495.521 144.96 492.577 144.96ZM537.853 144.96C531.581 144.96 526.909 143.392 523.837 140.256C520.765 137.12 519.229 132.544 519.229 126.528V106.08H510.205V97.056H519.229V83.04H531.229V97.056H545.437V106.08H531.229V125.856C531.229 128.928 531.901 131.232 533.245 132.768C534.589 134.304 536.765 135.072 539.773 135.072C540.669 135.072 541.597 134.976 542.557 134.784C543.517 134.528 544.509 134.272 545.533 134.016L547.357 142.848C546.205 143.488 544.733 144 542.941 144.384C541.213 144.768 539.517 144.96 537.853 144.96ZM552.425 86.976V75.264H565.865V86.976H552.425ZM553.193 144V97.056H565.193V144H553.193ZM591.486 144L571.134 97.056H583.902L598.398 133.44H595.518L610.494 97.056H622.494L601.854 144H591.486ZM627.519 86.976V75.264H640.959V86.976H627.519ZM628.287 144V97.056H640.287V144H628.287ZM674.26 144.96C667.988 144.96 663.316 143.392 660.244 140.256C657.172 137.12 655.636 132.544 655.636 126.528V106.08H646.612V97.056H655.636V83.04H667.636V97.056H681.844V106.08H667.636V125.856C667.636 128.928 668.308 131.232 669.652 132.768C670.996 134.304 673.172 135.072 676.18 135.072C677.076 135.072 678.004 134.976 678.964 134.784C679.924 134.528 680.916 134.272 681.94 134.016L683.764 142.848C682.612 143.488 681.14 144 679.348 144.384C677.62 144.768 675.924 144.96 674.26 144.96ZM688.831 86.976V75.264H702.271V86.976H688.831ZM689.599 144V97.056H701.599V144H689.599ZM737.204 144.96C731.892 144.96 727.316 143.968 723.476 141.984C719.636 140 716.66 137.184 714.548 133.536C712.5 129.888 711.476 125.568 711.476 120.576C711.476 115.712 712.468 111.456 714.452 107.808C716.5 104.16 719.284 101.312 722.804 99.264C726.388 97.152 730.452 96.096 734.996 96.096C739.476 96.096 743.316 97.056 746.516 98.976C749.716 100.896 752.18 103.616 753.908 107.136C755.7 110.656 756.596 114.848 756.596 119.712V123.264H721.172V116.352H748.148L746.612 117.792C746.612 113.44 745.652 110.112 743.732 107.808C741.812 105.44 739.06 104.256 735.476 104.256C732.788 104.256 730.484 104.896 728.564 106.176C726.708 107.392 725.268 109.152 724.244 111.456C723.284 113.696 722.804 116.384 722.804 119.52V120.192C722.804 123.712 723.348 126.624 724.436 128.928C725.524 131.232 727.156 132.96 729.332 134.112C731.508 135.264 734.196 135.84 737.396 135.84C740.02 135.84 742.644 135.456 745.268 134.688C747.892 133.856 750.292 132.576 752.468 130.848L755.828 138.912C753.588 140.768 750.772 142.24 747.38 143.328C743.988 144.416 740.596 144.96 737.204 144.96ZM783.283 144.96C780.659 144.96 778.099 144.736 775.603 144.288C773.171 143.84 770.931 143.232 768.883 142.464C766.835 141.632 765.043 140.608 763.507 139.392L766.579 131.52C768.179 132.544 769.907 133.44 771.763 134.208C773.619 134.976 775.539 135.552 777.523 135.936C779.507 136.32 781.459 136.512 783.379 136.512C786.451 136.512 788.723 136 790.195 134.976C791.731 133.888 792.499 132.48 792.499 130.752C792.499 129.28 791.987 128.16 790.963 127.392C790.003 126.56 788.531 125.952 786.547 125.568L776.947 123.744C772.979 122.976 769.939 121.536 767.827 119.424C765.779 117.248 764.755 114.464 764.755 111.072C764.755 108 765.587 105.344 767.251 103.104C768.979 100.864 771.347 99.136 774.355 97.92C777.363 96.704 780.819 96.096 784.723 96.096C786.963 96.096 789.139 96.32 791.251 96.768C793.363 97.152 795.347 97.76 797.203 98.592C799.123 99.36 800.787 100.384 802.195 101.664L798.931 109.536C797.715 108.512 796.307 107.648 794.707 106.944C793.107 106.176 791.443 105.6 789.715 105.216C788.051 104.768 786.419 104.544 784.819 104.544C781.683 104.544 779.347 105.088 777.811 106.176C776.339 107.264 775.603 108.704 775.603 110.496C775.603 111.84 776.051 112.96 776.947 113.856C777.843 114.752 779.219 115.36 781.075 115.68L790.675 117.504C794.835 118.272 797.971 119.68 800.083 121.728C802.259 123.776 803.347 126.528 803.347 129.984C803.347 133.12 802.515 135.808 800.851 138.048C799.187 140.288 796.851 142.016 793.843 143.232C790.835 144.384 787.315 144.96 783.283 144.96Z" fill="white"/>
</svg>
