<svg width="1640" height="224" viewBox="0 0 1640 224" fill="none" xmlns="http://www.w3.org/2000/svg">
<rect width="1640" height="224" rx="40" fill="#3B9086"/>
<path d="M111.142 144.96C107.622 144.96 104.23 144.64 100.966 144C97.7659 143.424 94.7899 142.56 92.0379 141.408C89.3499 140.256 86.9499 138.88 84.8379 137.28L88.5819 127.584C90.6939 129.056 92.9019 130.336 95.2059 131.424C97.5739 132.448 100.07 133.248 102.694 133.824C105.382 134.336 108.198 134.592 111.142 134.592C116.198 134.592 119.878 133.76 122.182 132.096C124.486 130.368 125.638 128.16 125.638 125.472C125.638 124 125.286 122.752 124.582 121.728C123.878 120.64 122.726 119.712 121.126 118.944C119.526 118.176 117.414 117.536 114.79 117.024L104.23 114.816C98.1499 113.536 93.6059 111.392 90.5979 108.384C87.6539 105.312 86.1819 101.28 86.1819 96.288C86.1819 92.064 87.3019 88.384 89.5419 85.248C91.7819 82.112 94.8859 79.68 98.8539 77.952C102.822 76.224 107.398 75.36 112.582 75.36C115.654 75.36 118.598 75.68 121.414 76.32C124.294 76.896 126.918 77.792 129.286 79.008C131.718 80.16 133.83 81.568 135.622 83.232L131.878 92.448C129.19 90.208 126.246 88.544 123.046 87.456C119.846 86.304 116.326 85.728 112.486 85.728C109.542 85.728 107.014 86.144 104.902 86.976C102.79 87.808 101.158 88.992 100.006 90.528C98.9179 92 98.3739 93.76 98.3739 95.808C98.3739 98.112 99.1419 99.968 100.678 101.376C102.214 102.72 104.838 103.776 108.55 104.544L119.014 106.752C125.35 108.096 130.054 110.208 133.126 113.088C136.262 115.968 137.83 119.808 137.83 124.608C137.83 128.64 136.742 132.192 134.566 135.264C132.39 138.336 129.286 140.736 125.254 142.464C121.286 144.128 116.582 144.96 111.142 144.96ZM168.26 144.96C161.988 144.96 157.316 143.392 154.244 140.256C151.172 137.12 149.636 132.544 149.636 126.528V106.08H140.612V97.056H149.636V83.04H161.636V97.056H175.844V106.08H161.636V125.856C161.636 128.928 162.308 131.232 163.652 132.768C164.996 134.304 167.172 135.072 170.18 135.072C171.076 135.072 172.004 134.976 172.964 134.784C173.924 134.528 174.916 134.272 175.94 134.016L177.764 142.848C176.612 143.488 175.14 144 173.348 144.384C171.62 144.768 169.924 144.96 168.26 144.96ZM199.055 144.96C195.663 144.96 192.623 144.32 189.935 143.04C187.311 141.696 185.231 139.904 183.695 137.664C182.223 135.424 181.487 132.896 181.487 130.08C181.487 126.624 182.383 123.904 184.175 121.92C185.967 119.872 188.879 118.4 192.911 117.504C196.943 116.608 202.351 116.16 209.135 116.16H213.935V123.072H209.231C206.223 123.072 203.695 123.2 201.647 123.456C199.599 123.648 197.935 124 196.655 124.512C195.439 124.96 194.543 125.6 193.967 126.432C193.455 127.264 193.199 128.288 193.199 129.504C193.199 131.616 193.935 133.344 195.407 134.688C196.879 136.032 198.927 136.704 201.551 136.704C203.663 136.704 205.519 136.224 207.119 135.264C208.783 134.24 210.095 132.864 211.055 131.136C212.015 129.408 212.495 127.424 212.495 125.184V114.144C212.495 110.944 211.791 108.64 210.383 107.232C208.975 105.824 206.607 105.12 203.279 105.12C200.655 105.12 197.967 105.536 195.215 106.368C192.463 107.136 189.679 108.352 186.863 110.016L183.407 101.856C185.071 100.704 187.023 99.712 189.263 98.88C191.567 97.984 193.967 97.312 196.463 96.864C199.023 96.352 201.423 96.096 203.663 96.096C208.271 96.096 212.047 96.8 214.991 98.208C217.999 99.616 220.239 101.76 221.711 104.64C223.183 107.456 223.919 111.104 223.919 115.584V144H212.687V134.016H213.455C213.007 136.256 212.111 138.208 210.767 139.872C209.487 141.472 207.855 142.72 205.871 143.616C203.887 144.512 201.615 144.96 199.055 144.96ZM257.603 144.96C251.331 144.96 246.659 143.392 243.587 140.256C240.515 137.12 238.979 132.544 238.979 126.528V106.08H229.955V97.056H238.979V83.04H250.979V97.056H265.187V106.08H250.979V125.856C250.979 128.928 251.651 131.232 252.995 132.768C254.339 134.304 256.515 135.072 259.523 135.072C260.419 135.072 261.347 134.976 262.307 134.784C263.267 134.528 264.259 134.272 265.283 134.016L267.107 142.848C265.955 143.488 264.483 144 262.691 144.384C260.963 144.768 259.267 144.96 257.603 144.96ZM290.127 144.96C287.503 144.96 284.943 144.736 282.447 144.288C280.015 143.84 277.775 143.232 275.727 142.464C273.679 141.632 271.887 140.608 270.351 139.392L273.423 131.52C275.023 132.544 276.751 133.44 278.607 134.208C280.463 134.976 282.383 135.552 284.367 135.936C286.351 136.32 288.303 136.512 290.223 136.512C293.295 136.512 295.567 136 297.039 134.976C298.575 133.888 299.343 132.48 299.343 130.752C299.343 129.28 298.831 128.16 297.807 127.392C296.847 126.56 295.375 125.952 293.391 125.568L283.791 123.744C279.823 122.976 276.783 121.536 274.671 119.424C272.623 117.248 271.599 114.464 271.599 111.072C271.599 108 272.431 105.344 274.095 103.104C275.823 100.864 278.191 99.136 281.199 97.92C284.207 96.704 287.663 96.096 291.567 96.096C293.807 96.096 295.983 96.32 298.095 96.768C300.207 97.152 302.191 97.76 304.047 98.592C305.967 99.36 307.631 100.384 309.039 101.664L305.775 109.536C304.559 108.512 303.151 107.648 301.551 106.944C299.951 106.176 298.287 105.6 296.559 105.216C294.895 104.768 293.263 104.544 291.663 104.544C288.527 104.544 286.191 105.088 284.655 106.176C283.183 107.264 282.447 108.704 282.447 110.496C282.447 111.84 282.895 112.96 283.791 113.856C284.687 114.752 286.063 115.36 287.919 115.68L297.519 117.504C301.679 118.272 304.815 119.68 306.927 121.728C309.103 123.776 310.191 126.528 310.191 129.984C310.191 133.12 309.359 135.808 307.695 138.048C306.031 140.288 303.695 142.016 300.687 143.232C297.679 144.384 294.159 144.96 290.127 144.96Z" fill="white"/>
</svg>
