<svg width="20" height="16" viewBox="0 0 20 16" fill="none" xmlns="http://www.w3.org/2000/svg">
<g clip-path="url(#clip0_25_496)">
<path d="M10.9344 7.38438H8.86877V5.52812H10.9344V7.38438ZM10.9344 1H8.86877V2.89687H10.9344V1ZM13.3781 5.525H11.3125V7.38125H13.3781V5.525ZM8.49377 3.27187H6.42814V5.15H8.49377V3.27187ZM10.9344 3.27187H8.86877V5.15H10.9344V3.27187ZM19.5844 6.39687C19.1344 6.09375 18.0969 5.98438 17.3 6.13438C17.1969 5.38438 16.7781 4.73125 16.0156 4.14375L15.5781 3.85313L15.2875 4.29063C14.7125 5.15938 14.5563 6.59063 15.1719 7.53438C14.9 7.68125 14.3656 7.88125 13.6594 7.86875H0.0750194C-0.196856 9.45625 0.256269 11.5187 1.45002 12.9344C2.60939 14.3062 4.34689 15.0031 6.61877 15.0031C11.5375 15.0031 15.1781 12.7375 16.8813 8.62187C17.55 8.63437 18.9938 8.625 19.7344 7.20937C19.7813 7.13125 19.9406 6.79688 20 6.675L19.5844 6.39687ZM3.61252 5.525H1.55002V7.38125H3.61564V5.525H3.61252ZM6.05314 5.525H3.98752V7.38125H6.05314V5.525ZM8.49377 5.525H6.42814V7.38125H8.49377V5.525ZM6.05314 3.27187H3.98752V5.15H6.05314V3.27187Z" fill="#85BDA6"/>
</g>
<defs>
<clipPath id="clip0_25_496">
<rect width="20" height="16" fill="white"/>
</clipPath>
</defs>
</svg>
