<svg width="16" height="16" viewBox="0 0 16 16" fill="none" xmlns="http://www.w3.org/2000/svg">
<g clip-path="url(#clip0_25_498)">
<path d="M15.7344 6.39379L15.7125 6.33754L13.5344 0.656292C13.4906 0.546917 13.4125 0.450042 13.3094 0.387542C13.2344 0.337542 13.15 0.309417 13.0594 0.300042C12.9688 0.290667 12.8813 0.303167 12.7969 0.334417C12.7125 0.365667 12.6375 0.415667 12.575 0.484417C12.5156 0.550042 12.4719 0.628167 12.4469 0.715667L10.9781 5.21567H5.02502L3.55314 0.715667C3.52814 0.628167 3.48439 0.550042 3.42502 0.484417C3.36252 0.418792 3.28752 0.365667 3.20314 0.334417C3.12189 0.303167 3.03127 0.290667 2.94064 0.300042C2.85314 0.309417 2.76564 0.337542 2.69064 0.387542C2.58752 0.450042 2.50939 0.546917 2.46564 0.656292L0.290643 6.33754L0.265643 6.39379C-0.0468573 7.21254 -0.0843573 8.11254 0.156268 8.95629C0.400018 9.79692 0.909393 10.5407 1.60939 11.0688L1.61564 11.075L1.63439 11.0875L4.94689 13.5719L6.59064 14.8125L7.59064 15.5688C7.70627 15.6282 7.85002 15.7032 7.99689 15.7032C8.14377 15.7032 8.28752 15.6282 8.40314 15.5688L9.40314 14.8125L11.0469 13.5719L14.3813 11.075L14.3906 11.0657C15.0906 10.5375 15.6 9.79692 15.8156 8.95629C16.0844 8.11254 16.0469 7.21254 15.7344 6.39379Z" fill="#3B9086"/>
</g>
<defs>
<clipPath id="clip0_25_498">
<rect width="16" height="16" fill="white"/>
</clipPath>
</defs>
</svg>
